<svg data-name="DAI coin" xmlns="http://www.w3.org/2000/svg" width="64" height="64" viewBox="0 0 64 64">
    <path data-name="Path 6263" d="M32 0A32 32 0 1 1 0 32 32 32 0 0 1 32 0z" style="fill:#f5ac37"/>
    <path data-name="Path 6264" d="M100.309 116.083h10.581c.226 0 .332 0 .348-.3a20.227 20.227 0 0 0 0-3.237c0-.209-.1-.3-.331-.3H89.849c-.261 0-.331.086-.331.331v3.1c0 .4 0 .4.417.4zm9.748-7.448a.339.339 0 0 0 0-.243 6.883 6.883 0 0 0-.629-1.1 8.879 8.879 0 0 0-1.288-1.619 4.27 4.27 0 0 0-.8-.783 12.51 12.51 0 0 0-5.222-2.645 12.979 12.979 0 0 0-2.959-.313h-9.346c-.261 0-.3.1-.3.331v6.178c0 .261 0 .331.331.331h20.083s.174-.035.209-.139h-.085zm0 11.069a4.062 4.062 0 0 0-.89 0h-19.3c-.261 0-.348 0-.348.348v6.04c0 .278 0 .348.348.348h8.911a4.45 4.45 0 0 0 1.269-.086 13.265 13.265 0 0 0 3.778-.836 6.914 6.914 0 0 0 1.269-.591h.122a11.307 11.307 0 0 0 4.856-4.888s.122-.263-.015-.332zm-24.036 9.868v-9.624c0-.227 0-.261-.278-.261h-3.777c-.209 0-.3 0-.3-.278V116.1h4.037c.226 0 .313 0 .313-.3v-3.272c0-.209 0-.261-.278-.261h-3.772c-.209 0-.3 0-.3-.278v-3.063c0-.192 0-.243.278-.243h3.746c.261 0 .331 0 .331-.331v-9.374c0-.278 0-.348.348-.348h13.052a19.887 19.887 0 0 1 2.819.313 17.012 17.012 0 0 1 5.447 2.019 15.351 15.351 0 0 1 3.063 2.367 16.771 16.771 0 0 1 1.862 2.314 13.958 13.958 0 0 1 1.36 2.663.453.453 0 0 0 .52.366h3.115c.4 0 .4 0 .417.383v2.855c0 .278-.1.348-.383.348h-2.4c-.243 0-.313 0-.3.313a17.78 17.78 0 0 1 0 3.184c0 .3 0 .331.332.331h2.748c.122.157 0 .313 0 .471a3.516 3.516 0 0 1 0 .608v2.106c0 .3-.086.383-.348.383h-3.289a.435.435 0 0 0-.5.331 13.917 13.917 0 0 1-3.655 5.326 20.965 20.965 0 0 1-1.862 1.5c-.7.4-1.375.818-2.089 1.149a18.817 18.817 0 0 1-4.108 1.3 21.415 21.415 0 0 1-4.073.331H86.016v-.018z" transform="translate(-67.194 -82.118)" style="fill:#fefefd"/>
</svg>
