<svg data-name="WBTC coin" xmlns="http://www.w3.org/2000/svg" width="64" height="64" viewBox="0 0 64 64">
    <defs>
        <clipPath id="ey3mpzgwia">
            <path data-name="Rectangle 3843" style="fill:none" d="M0 0h56v56H0z"/>
        </clipPath>
    </defs>
    <circle data-name="Ellipse 150" cx="32" cy="32" r="32" style="fill:#fff"/>
    <g data-name="Group 9868" transform="translate(3.999 3.999)" style="clip-path:url(#ey3mpzgwia)">
        <path data-name="Path 7138" d="m87.628 22.9-1.538 1.533a21.767 21.767 0 0 1 0 29.379l1.538 1.538a23.966 23.966 0 0 0 0-32.49z" transform="translate(-41.966 -11.143)" style="fill:#5a5564"/>
        <path data-name="Path 7139" d="M24.5 15.692a21.767 21.767 0 0 1 29.379 0l1.538-1.538a23.966 23.966 0 0 0-32.49 0z" transform="translate(-11.177 -3.807)" style="fill:#5a5564"/>
        <path data-name="Path 7140" d="M15.692 53.891a21.768 21.768 0 0 1 0-29.363l-1.537-1.538a23.966 23.966 0 0 0 0 32.49z" transform="translate(-3.807 -11.207)" style="fill:#5a5564"/>
        <path data-name="Path 7141" d="M53.876 86.05a21.767 21.767 0 0 1-29.379 0l-1.537 1.538a23.966 23.966 0 0 0 32.49 0z" transform="translate(-11.192 -41.946)" style="fill:#5a5564"/>
        <path data-name="Path 7142" d="M54.91 36.031c-.308-3.208-3.075-4.285-6.576-4.613V27h-2.706v4.336h-2.163V27h-2.686v4.449H35.29v2.9s2-.036 1.968 0a1.4 1.4 0 0 1 1.542 1.185v12.178a.964.964 0 0 1-1.025.9c.036.031-1.968 0-1.968 0l-.513 3.234h5.438v4.521h2.706v-4.458H45.6v4.433h2.711v-4.468c4.572-.277 7.76-1.4 8.16-5.684.323-3.444-1.3-4.982-3.885-5.6a4.184 4.184 0 0 0 2.327-4.556m-3.793 9.625c0 3.362-5.761 2.978-7.6 2.978v-5.969c1.835.005 7.6-.523 7.6 2.988m-1.256-8.406c0 3.075-4.808 2.7-6.335 2.7v-5.421c1.527 0 6.335-.482 6.335 2.722" transform="translate(-17.203 -13.161)" style="fill:#f09242"/>
        <path data-name="Path 7143" d="M27.995 56a28 28 0 1 1 .01 0zm0-53.817a25.806 25.806 0 1 0 .031 0h-.031" style="fill:#282138"/>
    </g>
</svg>
