<svg xmlns="http://www.w3.org/2000/svg" width="32" height="32" viewBox="0 0 32 32">
    <circle data-name="Ellipse 330" cx="16" cy="16" r="16" style="fill:#8247e5"/>
    <path data-name="Path 4926" d="M14.5 5.05a1.274 1.274 0 0 0-1.2 0L10.5 6.7 8.6 7.75 5.85 9.4a1.274 1.274 0 0 1-1.2 0L2.5 8.1a1.219 1.219 0 0 1-.6-1.05v-2.5a1.233 1.233 0 0 1 .6-1.05l2.15-1.25a1.274 1.274 0 0 1 1.2 0L8 3.55a1.219 1.219 0 0 1 .6 1.05v1.65l1.9-1.1v-1.7a1.233 1.233 0 0 0-.6-1.05L5.9.05a1.274 1.274 0 0 0-1.2 0L.6 2.45a1.1 1.1 0 0 0-.6 1v4.7A1.233 1.233 0 0 0 .6 9.2l4.05 2.35a1.274 1.274 0 0 0 1.2 0l2.75-1.6 1.9-1.1 2.75-1.6a1.274 1.274 0 0 1 1.2 0L16.6 8.5a1.219 1.219 0 0 1 .6 1.05v2.5a1.233 1.233 0 0 1-.6 1.05l-2.1 1.25a1.274 1.274 0 0 1-1.2 0l-2.15-1.25a1.219 1.219 0 0 1-.6-1.05v-1.6l-1.9 1.1v1.65a1.233 1.233 0 0 0 .6 1.05l4.05 2.35a1.274 1.274 0 0 0 1.2 0l4.05-2.35a1.219 1.219 0 0 0 .6-1.05V8.45a1.233 1.233 0 0 0-.6-1.05z" transform="translate(6.5 7.6)" style="fill:#fff"/>
</svg>
