<svg xmlns="http://www.w3.org/2000/svg" width="400" height="176" viewBox="0 0 400 176">
    <defs>
        <clipPath id="huomb6uwra">
            <rect data-name="Rectangle 3687" width="400" height="176" rx="16" style="fill:#1b1d38"/>
        </clipPath>
        <clipPath id="h75ehoxalb">
            <path data-name="Rectangle 3686" style="fill:#8247e5" d="M0 0h200.066v196.304H0z"/>
        </clipPath>
    </defs>
    <g data-name="cvi bg img color2" style="clip-path:url(#huomb6uwra)">
        <g data-name="safe dor solid complete" style="opacity:.7">
            <g data-name="Group 9484" style="clip-path:url(#h75ehoxalb)" transform="translate(-9 -11.533)">
                <path data-name="Path 6782" d="M1.168 102.893a.279.279 0 0 0 .139.05l3.425.27a65.921 65.921 0 0 0 2.1 16.278.282.282 0 0 0 .079.123l-2.831 8.874-1.614 2.732a.284.284 0 0 0-.022.245c.01.026 1.05 2.661 4.6 1.39a.281.281 0 0 0 .185-.234l.373-3.17 1.029-3.011a49.539 49.539 0 0 0 3.51 8.914.282.282 0 0 0 .16.136l.1 6.273-.066-.026a.272.272 0 0 0-.107-.022.285.285 0 0 0-.284.284v4.989a.282.282 0 0 0 .187.266 4.9 4.9 0 0 0 3 .239c.9 4.058 9.554 41.325 24.014 42.661a8.979 8.979 0 0 0 2.061-.046 6.946 6.946 0 0 0 1.514-.225l14.418-1.109a.276.276 0 0 0 .076-.016 13.534 13.534 0 0 0 3.446-2.214c1.817 1 18.407 9.76 43.513 9.76 13.983 0 37.563-5.261 58-20.085a89 89 0 0 0 26.689-30.411c7.441-14.011 11.216-30.386 11.216-48.67 0-17.089-3.7-32.516-11-45.851a89.569 89.569 0 0 0-26.149-29.336C143.763 7.961 121.092 1.519 106.262.155A40.069 40.069 0 0 0 102.611 0C85.1 0 55.7 9.265 50.318 14.669a.283.283 0 0 0 .4.4C56.437 9.328 89.61-.814 106.21.721c32.268 2.965 93.29 26.935 93.29 96.418 0 42.4-20.485 66.156-37.669 78.621-19.024 13.8-42.67 19.976-57.667 19.976-24.276 0-40.523-8.222-43.048-9.585.39-.339.8-.717 1.23-1.143 1.942.961 19.622 9.414 40.5 9.414 13.827 0 37.211-5.749 57.609-21.949 16.01-12.715 35.094-36.106 35.094-75.334 0-17.507-4.006-33.224-11.905-46.712a89.41 89.41 0 0 0-27.81-29.017C135.067 7.483 111 2.429 99.9 2.429c-15.943 0-27.105.876-47.64 13.027a.283.283 0 1 0 .288.487C72.957 3.867 84.052 3 99.9 3c11.037 0 34.96 5.029 55.619 18.884 18 12.074 39.465 34.932 39.465 75.259 0 39-18.967 62.252-34.879 74.89-20.284 16.109-43.522 21.826-57.257 21.826-20.262 0-37.493-8.011-40.082-9.272.5-.52 1.03-1.1 1.573-1.744a22.817 22.817 0 0 0 12.182-2.182.284.284 0 0 0 .065-.475 5.925 5.925 0 0 0-3.725-.985 17.3 17.3 0 0 0-7.088 1.82 43.855 43.855 0 0 0 1.875-2.768c2.677-2.1 7.569-.871 8.51-.606l.53 2.623a.284.284 0 0 0 .557-.112l-.281-1.391a.145.145 0 0 0 .022 0c.225-.015 4.757-.393 10.021-6.778a75.435 75.435 0 0 0 21.441 1.18c11.414-.944 27.968-4.921 42.03-18.51 27.865-26.929 38.109-73.029 3.773-109.035-17.74-18.6-37.52-23.239-52.827-23.239a76.918 76.918 0 0 0-22.7 3.415 27.256 27.256 0 0 0-1.854-1.459l-.153-.613a.284.284 0 0 0-.276-.214h-.01c-.563-.546-2.121-1.175-6.169-1.756a27.463 27.463 0 0 0-3.833-.312c-1.972 0-3.33.337-3.995 1.005a1.53 1.53 0 0 0-.3.419 31.334 31.334 0 0 0-2.86-2.617 25.292 25.292 0 0 0-16.2-5.655 38.18 38.18 0 0 0-7.062.744l-.427.077c-10.7.07-22.888 33.876-23.84 44.428V62.317a74.958 74.958 0 0 0-4.32 12.737L6.9 73.37a.279.279 0 0 0-.094-.136 2.475 2.475 0 0 0-1.364-.523 1.356 1.356 0 0 0-.442.073A1.983 1.983 0 0 0 3.876 74.4a.29.29 0 0 0 .005.143l2.58 8.609a68.448 68.448 0 0 0-1.747 16.634l-3.365-.232h-.02a.282.282 0 0 0-.128.03c-.046.024-1.133.585-1.2 1.531-.043.615.349 1.213 1.164 1.778m4.13.363 1.531.121c-.007.373-.012.748-.012 1.127a44.705 44.705 0 0 0 1.331 11.319.271.271 0 0 0-.061.084l-.884 2.777a65.99 65.99 0 0 1-1.9-15.428m1.26-3.343a49.766 49.766 0 0 1 .915-13.389l1.239 4.14a.279.279 0 0 0 .182.182l-.106.28a22.259 22.259 0 0 0-1.266 4.9 44.55 44.55 0 0 0-.511 3.92zm1.8-21.839a53.654 53.654 0 0 1 2.456-8.09l-.6 14.06zm2.352 7.576.748-17.432q.137-.372.283-.759v18.732a.286.286 0 0 0 .039.136 5.165 5.165 0 0 0-.669.611zM21.5 63.7a71.774 71.774 0 0 1-1.593 10.2c-.429-4.589-2.078-24.835 1.513-31.649-.32 3.393-1.091 13.381.08 21.449m-2.069 11.2a.283.283 0 0 0 .432.211c1.041-.651 1.948-8.875 2.2-11.379a.3.3 0 0 0 0-.07 93.035 93.035 0 0 1-.328-18.309c.28 5.155.693 13.419.523 14.673a.284.284 0 0 0 .233.317.289.289 0 0 0 .325-.22c.019-.087 1.819-8.6 2.311-10.071a.3.3 0 0 0 0-.184L22.094 41.2c0-.036.006-.061.008-.065a.284.284 0 0 0-.174-.3.273.273 0 0 0-.108-.022.285.285 0 0 0-.223.107.285.285 0 0 1-.019.026 39.261 39.261 0 0 1 6.931-10.24c2.322-2.281 4.622-3.438 6.842-3.438h.106c11.336.188 19.326 20.271 24.41 61.377 1.061 21.993.142 30.838-1.064 36.849-2.538-1.919-18.144-13.766-20.683-17.085l-2.4-3.133c3.141.368 16.166 1.637 23.386-1.67a.283.283 0 0 0-.107-.541l-19.758-.808 17.645-11.436a.289.289 0 0 0 .114-.157l1.317-4.392a.283.283 0 0 0-.1-.309.279.279 0 0 0-.167-.057.287.287 0 0 0-.158.048l-20.158 13.4a.816.816 0 0 0-.33-.416c-.49-.307-1.3-.09-2.472.662a11.892 11.892 0 0 0-2.2 1.739A50.47 50.47 0 0 0 31.24 88.4c.995-.679 7.31-4.957 11.194-7.014 4.17-2.209 13.361-3.346 13.454-3.357a.283.283 0 1 0-.068-.562c-.383.046-9.388 1.162-13.652 3.418-2.025 1.072-4.7 2.743-6.953 4.2 1.683-3.076 6.9-12.769 10.672-21.4A43.527 43.527 0 0 0 49.8 44.726a.281.281 0 0 0-.283-.26.279.279 0 0 0-.167.055c-8.674 6.346-18.021 34.412-19.611 39.343-2.174-5.274-4.841-7.7-5.52-8.252l.691-2.166a.28.28 0 0 0-.039-.243A1.567 1.567 0 0 0 23.7 71.7a1.8 1.8 0 0 0-.55-.085 1.675 1.675 0 0 0-.628.12 1.29 1.29 0 0 0-.764.8 1.272 1.272 0 0 0-.052.308l-1.77 5.635-3.283 9.012a4.836 4.836 0 0 0-1.961-1.639V63.51c0-3.748 2.047-11.692 5.312-19.186-2.793 9.431-.678 29.6-.573 30.572m2.752-31.722 2.376 6.787c-.343 1.1-1.157 4.76-1.717 7.344-.1-3.925-.466-10.738-.658-14.131m26.691 126.748c-1.862-1.689-10.654-10.042-14.466-20.485a257.627 257.627 0 0 1-2.7-7.791l-.108-.635a.281.281 0 0 0-.172-.214c-2.367-7.261-3.638-12.2-3.656-12.264a.283.283 0 0 0-.274-.213.276.276 0 0 0-.057.006.283.283 0 0 0-.224.321l7.681 48.3c-5.043-2.37-9.221-9.565-12.073-15.954l.74-22.716a4.952 4.952 0 0 0 1.229-.343 1.477 1.477 0 0 0 .83-1.046.89.89 0 0 0-.222-.773l-2.593-6.188c.058-.06.129-.136.215-.236a4.2 4.2 0 0 0 3.38-.7c1.381-.994 2.538-2.956 3.486-5.917 9.434 33.846 19.962 41.4 20.466 41.748h.008a.273.273 0 0 0 .143.042h.032a.279.279 0 0 0 .142-.053h.012a.2.2 0 0 0 .038-.043c.005-.005.012-.009.017-.016 7.308-10.305 7.579-28.573 7.581-28.755a.284.284 0 0 0-.2-.274c-.176-.054-17.546-5.495-23.774-12.811a.208.208 0 0 0-.05-.037c-.008-.006-.009-.015-.016-.02L32.6 121.8a.286.286 0 0 0-.15-.043h-2.174a81.928 81.928 0 0 0 2.205-14.741c6.516 9.314 26.18 19.133 26.383 19.234a.332.332 0 0 0 .037.011c.011 0 .02.01.03.012a.137.137 0 0 0 .018 0 .266.266 0 0 0 .056 0 .263.263 0 0 0 .054-.005.353.353 0 0 0 .041-.017.334.334 0 0 0 .053-.026.356.356 0 0 0 .034-.034.285.285 0 0 0 .038-.043l.005-.005a.291.291 0 0 0 .022-.058.316.316 0 0 0 .013-.033v-.008c1.082-5.219 1.972-12.458 1.5-28.794 2.545 31.148-3.322 59.468-11.895 72.667m-13.361 7.286-6.962-43.773c.644 2.2 1.517 5.057 2.6 8.351l6.018 35.867a8.106 8.106 0 0 1-1.659-.444m2.244.512L32.3 145.18c.493 1.43 1.018 2.917 1.578 4.451 3.9 10.676 12.925 19.185 14.684 20.772-2.845 4.226-5.976 6.8-9.188 7.267a7.247 7.247 0 0 1-1.614.05m-21.41-35.6c0-.008-.006-.013-.009-.02a.292.292 0 0 0-.026-.054.213.213 0 0 0-.028-.041.248.248 0 0 0-.042-.039.347.347 0 0 0-.041-.028.3.3 0 0 0-.053-.019.269.269 0 0 0-.054-.011.226.226 0 0 0-.022 0h-.457v-19.436H15.6a8.985 8.985 0 0 0 1.259-1.385l2.8 9.278a.283.283 0 0 0 .052.1 1.194 1.194 0 0 0 .449.483l1.388 6c0 .015-.014.027-.017.042a.925.925 0 0 0 .245.847l.009.012c.009.009.013.019.023.027s.033.024.046.038a1.755 1.755 0 0 0 1.143.4l-.7 21.471a128.712 128.712 0 0 1-5.948-17.66m-3.383-.141-.291-18.79a2.754 2.754 0 0 0 .979.187 2.59 2.59 0 0 0 1.4-.486v19.131a3.385 3.385 0 0 1-2.084-.043m-4.817-28.835c1.27 5.025 3.346 7.564 4.717 7.583h.015a1.47 1.47 0 0 0 1.029-.486c1.8-1.772 3.1-8.637 3.1-16.323 0-6.318-1.042-11.754-2.325-14.626v-.234a.278.278 0 0 0-.242-.274c-.493-.956-1.011-1.538-1.514-1.651a1.609 1.609 0 0 0-.333-.037 2.343 2.343 0 0 0-1.212.39 3.089 3.089 0 0 1 2.266-1.29c.946 0 1.9.671 2.762 1.935l-.766 2.1a.284.284 0 1 0 .533.194l4.1-11.234a2.471 2.471 0 0 0 2.038.641l-4.351 13.39a.283.283 0 0 0 .539.175l.03-.091a46.479 46.479 0 0 1 1.362 9.685l-1.623-.143c-.064-.8-.122-1.3-.134-1.4l-.563.067c.016.126 1.474 12.664-2.481 18.439l.469.321a10.669 10.669 0 0 0 .692-1.17l.39 1.29c-1.01 1.489-2.15 2.413-3 2.413-2.336 0-4.424-3.961-5.5-9.661m1.49-22.585a6.694 6.694 0 0 1 1.726-2.366 2.8 2.8 0 0 1 .572-.354v10.431h-.759v.055a.761.761 0 0 0-.273-.055c-1.159 0-1.766 2.554-1.766 5.079 0 2.229.474 4.48 1.384 4.976l-1.889 4.488a41.245 41.245 0 0 1-1.036-9.69 49.61 49.61 0 0 1 .327-5.968 30.354 30.354 0 0 1 1.712-6.6m.784 15.548c.789 0 .851-2.185.851-2.856s-.061-2.856-.851-2.856c-.207 0-.363.153-.482.387.25-1.227.651-1.941.961-1.941.49 0 1.2 1.758 1.2 4.512 0 2.33-.507 3.942-.96 4.385h-.152v.108a.24.24 0 0 1-.088.019c-.339 0-.783-.846-1.025-2.282.125.312.3.524.545.524m-.283-2.856a6.5 6.5 0 0 1 .283-2.178 8.5 8.5 0 0 1 0 4.355 6.5 6.5 0 0 1-.283-2.178m.963 5.154a.844.844 0 0 0 .225-.1h.411v1.2l-2.387 5.754c-.17-.476-.333-.983-.486-1.533zm-1.421 7.536 2.057-4.958v8.53a10.641 10.641 0 0 1-2.138-3.606zm2.624-7.636h1.445l-.1 11.383c-.046.053-.091.1-.137.15a.936.936 0 0 1-.631.323h-.008a1.179 1.179 0 0 1-.566-.2zm2.007 0h1.016v-.567h-3.484a5.959 5.959 0 0 0 .615-1.879h3.962c-.164 5.569-1.023 10.561-2.192 12.919zm-1.769-3.014a14.87 14.87 0 0 0 .125-1.938 14.3 14.3 0 0 0-.194-2.39h3.889c.053.955.081 1.942.081 2.955 0 .46 0 .919-.014 1.373zm2.364-4.9 1.115-3.212c.129 1.016.234 2.091.307 3.212zm-.6 0H12.39v.107a4.984 4.984 0 0 0-.629-1.662h2.431v-.566h-.225l1.468-4.607c.153.713.294 1.48.42 2.289zm.379-6.267v-3.26c.17.519.335 1.092.492 1.718zm-.567 1.78-.741 2.325.125.041h-1v-10.6a1.029 1.029 0 0 1 .307.015c.4.09.861.686 1.312 1.687zM29.7 85.314l.815 2.539a49.744 49.744 0 0 1 1.648 14.2 1.4 1.4 0 0 0-.177.4.274.274 0 0 0 .158.3 75.934 75.934 0 0 1-.161 3.409c-.919 12.674-2.906 20.2-5.907 22.358a3.592 3.592 0 0 1-2.64.652c1.728-2.3 5.713-9.471 5.3-26.236-.436-17.412-2.086-19.97-3.836-22.678a19.407 19.407 0 0 1-1.077-1.818.283.283 0 0 0-.253-.156.274.274 0 0 0-.128.03.283.283 0 0 0-.125.38 19.411 19.411 0 0 0 1.106 1.872c1.706 2.638 3.318 5.13 3.743 22.391.01.4.012.788.016 1.178a1.51 1.51 0 0 0-1.072-.5l-6.642-.59a42.394 42.394 0 0 0-.089-1.741l6.719-.336a.284.284 0 0 0-.014-.568h-.015l-6.732.338q-.064-.76-.151-1.527l6.539-1.149a.284.284 0 0 0-.049-.564.261.261 0 0 0-.049 0l-6.512 1.144a44.429 44.429 0 0 0-1.256-6.331L22.995 79.6a.284.284 0 0 0 0-.159l1.036-3.243c.9.783 3.618 3.487 5.667 9.119m.6.022-.22-.686c.586-1.843 10.349-32.151 19.175-39.342a44.235 44.235 0 0 1-3.892 18.151c-4.357 9.97-10.647 21.365-11.159 22.284-.628.411-1.2.79-1.69 1.117L48.9 47.494a.287.287 0 0 0-.154-.372.294.294 0 0 0-.108-.022.284.284 0 0 0-.262.175L31.664 87.432l-.568.384-.083-.263a36.775 36.775 0 0 0-.711-2.217m4.936 14.74c1.332-.855 1.764-.72 1.861-.658.161.1.136.386.136.386a.284.284 0 0 0 .438.271l19.878-13.213-1.062 3.538-18.3 11.873a.284.284 0 0 0 .143.521l19.342.79c-8.2 2.948-22.4 1.072-22.548 1.051a.284.284 0 0 0-.263.454l2.809 3.67c2.166 2.831 13.184 11.393 18.414 15.388-5.95-3.238-18.962-10.88-23.531-18.04q.142-2.017.171-3.874a8.6 8.6 0 0 1 2.516-2.16m15.347 63.906L34.95 124.366c6.619 6.53 20.842 11.206 22.81 11.832-.052 2.025-.674 18.157-7.175 27.783m-16.671-40.7 15.927 40.356c-2.731-2.545-11.653-12.624-19.569-41.312h2.1zm-9.338 14.124a2.514 2.514 0 0 1-2.32.1l-.122-.525a1.129 1.129 0 0 1 .621-.458c.788-.279 1.866-.368 2.21-.057a.317.317 0 0 1 .1.321.911.911 0 0 1-.488.618m-.411-1.7a5.135 5.135 0 0 0-1.6.283 1.986 1.986 0 0 0-.586.33l-1.3-5.623a.284.284 0 0 0-.151-.191c-.112-.056-.321-.211-.32-.335 0-.037.033-.239.645-.527.846-.4 1.316-.359 1.425-.237.062.068.012.206-.046.3v.014a.257.257 0 0 0-.029.088.133.133 0 0 0-.006.029.261.261 0 0 0 .018.119v.008l2.423 5.781a2.792 2.792 0 0 0-.47-.042m-4.175-6.189-3.37-11.182a17.372 17.372 0 0 0 .857-2.528l4.575 12.954c-.028 0-.051-.008-.081-.008a3.3 3.3 0 0 0-1.359.377 2.689 2.689 0 0 0-.621.387m6.027-25.412a2.08 2.08 0 0 0-.58 1.465 2.143 2.143 0 0 0 .332 1.153l-7.3-1.178-.046.294a54.291 54.291 0 0 0-.108-2.418zm1.081 2.833-.277-.044a1.349 1.349 0 0 1-.826-1.318 1.254 1.254 0 0 1 1.081-1.372 1.41 1.41 0 0 1 .012 2.74m-8.667-.825 1.462.236a35.973 35.973 0 0 1-1.53 10.25l-.639-1.806a39.654 39.654 0 0 0 .712-8.677m4.325 22.939-4.1-11.6a34.816 34.816 0 0 0 1.8-11.009l6.247 1.008a1.423 1.423 0 0 0 .3.047l.041.007c.015 0 .029.005.046.005a1.509 1.509 0 0 0 1.089-.495c-.286 14.182-4.01 20.275-5.385 22.048l-.035-.008m1.52-55.729a.844.844 0 0 1-.849.528 1.246 1.246 0 0 1-.38-.061 1.164 1.164 0 0 1-.64-.468.777.777 0 0 1-.129-.414.31.31 0 0 0 0-.092.764.764 0 0 1 .02-.112.731.731 0 0 1 .437-.449 1.17 1.17 0 0 1 .792-.019.943.943 0 0 1 .742 1.087m-2.254.422a1.768 1.768 0 0 0 2.02.549l-1.583 4.957c-1.394.139-1.838-.487-1.947-.7zm-11.1 48.108 1.194 5.585a.26.26 0 0 0 .063.12l.037 2.4a19.119 19.119 0 0 1-2.448-6.847l.655-1.916a7.985 7.985 0 0 0 .5.654m1.215 2.968-.479-2.238a3.907 3.907 0 0 0 .8.508l-.345.006zm1.992-39.145a2.679 2.679 0 0 0-.471-.045 2.842 2.842 0 0 0-1.343.352v-26a1.336 1.336 0 0 1 1.814.026zm-5.712 31.07a17.939 17.939 0 0 0 1.616 3.84l-2.93 8.568a2.689 2.689 0 0 1-2.048-.032.956.956 0 0 1-.418-.511zM3.03 131.382l1.286-2.182a1.554 1.554 0 0 0 .423.4 2.939 2.939 0 0 0 2.252.171l-.307 2.608c-2.5.824-3.435-.567-3.654-1m5.948-5.966.409-1.2a18.517 18.517 0 0 0 2.774 6.709.266.266 0 0 0 .067.061l.052 3.377a42.582 42.582 0 0 1-3.3-8.953m3.528 21.371v-4.362l.084.03a4.03 4.03 0 0 0 2.815.017h.385v4.1a3.513 3.513 0 0 1-3.284.215m63.281 33.574a22.919 22.919 0 0 1-11.016 1.954c.078-.1.157-.2.238-.3 6.313-3.158 9.663-2.2 10.778-1.655m32.631-7.751a75.71 75.71 0 0 1-21.02-1.107 35.011 35.011 0 0 0 1.583-2.16 71.9 71.9 0 0 0 31.134.7 62.322 62.322 0 0 0 16.424-5.766 70.212 70.212 0 0 1-28.121 8.333M81.835 28.741c2.534-.869 17-5.28 36.446-.414-.386-.074-.77-.152-1.159-.219a75.159 75.159 0 0 0-12.8-1.074A78.736 78.736 0 0 0 82.913 29.9a56.88 56.88 0 0 0-1.078-1.155m35.19-.074c16.942 2.938 39.782 13.615 52.373 47.781.088.256 8.709 25.887 0 47.747q-1.121 2.815-2.33 5.407c-15.238 24.878-34.335 33.712-48.09 36.68a65.393 65.393 0 0 1-28.13.021c5.763-10.241 12.276-30.861 12.276-71.738 0-27.647-7.213-45.317-13.265-55.274a62.207 62.207 0 0 0-6.533-8.929 79.669 79.669 0 0 1 33.693-1.7m-26.871 138.85c.137-.227.276-.462.415-.7a65.687 65.687 0 0 0 28.512.029c13.06-2.812 30.893-10.866 45.745-32.707-12.754 24.02-30.99 32.539-44.79 35.341a71.508 71.508 0 0 1-30.715-.643c.278-.424.556-.858.834-1.318m77.421-37.635c.237-.387.471-.789.706-1.184a83.308 83.308 0 0 1-3.869 7.389q1.66-2.985 3.162-6.2m-13.73-83.87c23.326 24.462 25.919 53.617 16.364 78.154-.222.411-.448.8-.672 1.208.132-.325.27-.641.4-.969 8.784-22.059.092-47.884 0-48.147-5.6-15.194-13.669-27.086-23.981-35.345a61.175 61.175 0 0 0-9.393-6.192c-.009-.005-.014-.013-.022-.018a5.111 5.111 0 0 1-.164-.084q-1.76-.932-3.584-1.755l-.175-.082-.147-.065a77.252 77.252 0 0 0-32.2-7.207A58.953 58.953 0 0 0 81.4 28.293c-.8-.811-1.534-1.5-2.173-2.06 11.043-3.416 45.581-10.668 74.615 19.777M78.156 26.058a.271.271 0 0 0-.023.224.283.283 0 0 0 .356.184l.1-.034A55.642 55.642 0 0 1 89.4 39.622c6 9.891 13.16 27.452 13.16 54.944 0 42.326-6.985 62.823-12.844 72.564-6.316 10.508-12.706 11.065-12.77 11.07a.285.285 0 0 0-.093.026l-.175-.861a.284.284 0 0 0-.191-.215 16.66 16.66 0 0 0-4.531-.684 8.526 8.526 0 0 0-3.665.725 78.423 78.423 0 0 0 7.909-19.91c.485 1.961 2.465 3.193 5.36 4.374a.275.275 0 0 0 .227-.008 6.743 6.743 0 0 0 2.3.4c2.978 0 8.607-2.092 9.255-5.945a.076.076 0 0 0 .014-.013c.1-.15 2.48-3.683 1.06-6.292-.927-1.7-3.241-2.567-6.882-2.567-.207 0-.416 0-.631.008-3.222.084-7.595 2.8-9.622 5.626 3.165-14.017 5.135-33.474 4.014-60.366a231.6 231.6 0 0 0-3.425-32.627c1.32 1.434 3.674 2.921 7.786 2.982 3.963.055 6.541-.915 7.713-2.893 1.691-2.851-.135-6.8-.651-7.8-1.261-2.566-4.459-4.329-7.693-5.048a5.831 5.831 0 0 0-1.282-.142 5.7 5.7 0 0 0-3.182.965c-1.851.046-3.552 1.957-4.414 3.97Q72.45 37 66.276 27.968c7.685 3.334 11.1-.37 11.247-.535a.283.283 0 0 0 .062-.258l-.5-1.973c.29.222.65.506 1.068.857M93.39 154.894c-.138-2.164-1.3-4.52-5.728-4.52-5.642 0-9.066 5.121-9.066 7.373a3.62 3.62 0 0 0 .84 2.275c-2.469-1.393-3.168-2.848-2.608-5.013.812-3.137 6.375-7.11 10.09-7.206 3.783-.1 6.129.664 7 2.262s.064 3.669-.528 4.828m-14.228 2.853c0-2.078 3.212-6.806 8.5-6.806 3.435 0 5.175 1.488 5.175 4.422 0 4.036-6.134 6.117-8.751 6.117-2.715 0-4.924-1.674-4.924-3.732M92.713 54.774c-.16 3.3-1.47 4.793-4.38 5-3.98.28-8.791-2.054-9.616-5.987a5.189 5.189 0 0 1 1.419-4.781 5.09 5.09 0 0 1 4.764-1.344c3.884.863 7.985 3.457 7.809 7.112m-14.552-.868c.886 4.223 6 6.743 10.211 6.436 3.087-.22 4.6-1.806 4.874-5.11a6.012 6.012 0 0 1-.366 4.439c-1.061 1.789-3.483 2.666-7.217 2.614-4.42-.065-6.687-1.837-7.809-3.311a.281.281 0 0 0-.172-.1q-.605-3.121-1.3-6.025a.342.342 0 0 0 .043-.075 6.892 6.892 0 0 1 3.217-4.056 5.756 5.756 0 0 0-1.479 5.192M62.86 22.826c.529-.506 2.184-1.246 7.32-.509 5.977.857 5.979 1.793 5.977 1.831-.042.566-2.716 1.432-5.937 1.432a13.147 13.147 0 0 1-7.64-2.28.9.9 0 0 1 .28-.473m7.361 3.322c2.229 0 5.2-.477 6.173-1.379l.6 2.387c-.628.586-4.178 3.379-11.371-.11a38.486 38.486 0 0 0-1.828-2.349 14.4 14.4 0 0 0 6.423 1.451m-11.3-5.453a34.113 34.113 0 0 1 6.294 6.744.182.182 0 0 0 .018.025c9.011 12.514 14.218 34.32 15.5 65.057 2.336 56.108-8.77 79.7-16.08 89.034-.184.093-.368.186-.556.286a.284.284 0 0 0-.119.383.265.265 0 0 0 .068.083.494.494 0 0 1-.036.044c-3.673 4.415-6.617 5.718-6.965 5.86l-12.228.94a19.674 19.674 0 0 0 5.909-4.256c8.87-8.97 19.152-31.924 17.774-90.33 0-36.636-8.894-56.19-16.354-66.143a46.045 46.045 0 0 0-5.673-6.309c-3.15-3.618-6.265-5.768-9-6.453 4.8-.8 13.191-1.576 21.452 5.034m-11.76 166.464c.091-.079.181-.156.27-.237C58.97 176.4 66.426 141.717 66.426 98.56c0-35.571-8.154-59.755-16.917-72.5q1.085 1.25 2.181 2.7c7.409 9.884 16.24 29.322 16.24 65.81 1.375 58.144-8.8 80.972-17.57 89.883a21.739 21.739 0 0 1-3.2 2.7M40.81 17.818c-.5-.3-.965-.569-1.4-.8a14.726 14.726 0 0 1 1.4.8m-5.223-1.833c.445.122 4.958 1.463 10.457 6.5a57.388 57.388 0 0 1 8.52 13.785c5.153 11.192 11.294 31.084 11.294 62.29 0 43-7.382 77.524-18.809 87.942a11.722 11.722 0 0 1-5.015 2.865l-2.864.22c-13.982-1.326-22.77-39.008-23.507-42.287a2.29 2.29 0 0 0 .609-.391.282.282 0 0 0 .086-.2v-2.341a126.232 126.232 0 0 0 5.923 16.8c5.435 12.2 11.214 17.941 17.175 17.069 3.317-.486 6.573-3.111 9.536-7.5a.276.276 0 0 0 .285-.431c3.168-4.848 5.989-11.73 8.169-20.2 4.487-17.431 5.661-39.136 3.222-59.55-.078-.652-.156-1.3-.236-1.943-.043-.883-.088-1.78-.136-2.705a.282.282 0 0 0-.242-.26C54.907 46.192 46.851 26.9 35.466 26.709h-.117c-2.373 0-4.808 1.211-7.237 3.6-6.694 6.583-12.042 21.054-13.556 29.319a2.248 2.248 0 0 0-1.385-.544 1.788 1.788 0 0 0-.793.188C13.7 48.466 25.59 16.053 35.586 15.985M11.744 63.659v2.2a98.135 98.135 0 0 0-3.727 11.103l-.268-.862a85.038 85.038 0 0 1 3.995-12.439M5.183 73.32a1.507 1.507 0 0 1 1.206.307L7.8 78.172l2.878 9.274a12.4 12.4 0 0 0-1.518 2.73L4.447 74.449c.152-.63.4-1.01.736-1.129M6.8 84.276l.362 1.207C5.527 91.192 5.9 98.47 5.987 99.873l-.7-.049A66.833 66.833 0 0 1 6.8 84.276m-5.4 15.849 5.57.383q-.085 1.125-.121 2.3l-5.414-.425c-.424-.305-.892-.752-.861-1.229.036-.521.627-.913.825-1.029" style="fill:#8247e5"/>
                <path data-name="Path 6783" d="M33.409 83.572a.282.282 0 0 0 .317-.167c.015-.033 1.469-3.426 3.275-7.354v-.007q.73-1.587 1.392-2.98c0-.01.01-.02.014-.03 2.506-5.271 4.275-8.441 5.157-9.23a.285.285 0 0 0 .095-.215l-.315-25.913a.283.283 0 0 0-.253-.278h-.031a.284.284 0 0 0-.276.219c-.059.252-5.888 25.3-4.93 35.259q-.465.977-.963 2.052c-1.267-11.293 4.563-34.179 4.624-34.415a.284.284 0 0 0-.166-.333.288.288 0 0 0-.349.12c-7.917 13.278-7.822 42.7-7.82 43a.285.285 0 0 0 .228.276m9.4-43.465.284 23.365c-.909.906-2.5 3.714-4.742 8.368-.419-8.475 3.091-25.493 4.458-31.734m-2.362 2.408c-1.464 6.2-5.41 24.262-4 33.373a367.718 367.718 0 0 0-2.693 6.014c.084-5.675.795-27.344 6.689-39.387" transform="translate(-7.478 -8.428)" style="fill:#8247e5"/>
                <path data-name="Path 6784" d="M19.661 104.462a.284.284 0 0 0 .329-.229l1.31-7.214a.283.283 0 0 0-.229-.33.276.276 0 0 0-.05 0 .284.284 0 0 0-.279.233l-1.307 7.216a.283.283 0 0 0 .229.329" transform="translate(-4.378 -21.789)" style="fill:#8247e5"/>
                <path data-name="Path 6785" d="m43.959 127.593 2.949.361a.268.268 0 0 0 .061 0 .325.325 0 0 0 .039 0 .275.275 0 0 0 .086-.038l.012-.005.01-.007 17.998-12.784a.283.283 0 0 0-.164-.514.276.276 0 0 0-.163.053l-17.918 12.719-2.841-.348h-.035a.284.284 0 0 0-.034.565" transform="translate(-9.851 -25.828)" style="fill:#8247e5"/>
                <path data-name="Path 6786" d="M48.722 134.066a.284.284 0 0 0 .284.284h14.375a.284.284 0 0 0 0-.567H49.006a.284.284 0 0 0-.284.284" transform="translate(-10.98 -30.149)" style="fill:#8247e5"/>
                <path data-name="Path 6787" d="M106.563 133.8a8.816 8.816 0 1 0 8.816-8.767 8.8 8.8 0 0 0-8.816 8.767m9.983 7.358a6.963 6.963 0 1 1 6.907-6.963 6.942 6.942 0 0 1-6.907 6.963m5.893-11.579a7.517 7.517 0 1 0-4.493 12.008 8.195 8.195 0 1 1 4.493-12.008" transform="translate(-24.015 -28.177)" style="fill:#8247e5"/>
                <path data-name="Path 6788" d="M105.307 235.12a4.876 4.876 0 1 0 4.866-4.551 4.722 4.722 0 0 0-4.866 4.551m4.866 3.983a4.154 4.154 0 0 1-4.3-3.983 4.1 4.1 0 0 1 3.707-3.941l-2.055 2.8a.281.281 0 0 0 .033.366 2.683 2.683 0 0 0-.088.649 2.77 2.77 0 0 0 4.725 1.923l2.27-1.727a4.159 4.159 0 0 1-4.295 3.914m.064-1.947a2.163 2.163 0 1 1 2.2-2.163 2.183 2.183 0 0 1-2.2 2.163m4.179-2.642-1.509 1.148a2.654 2.654 0 0 0 .095-.669 2.735 2.735 0 0 0-3.621-2.583l.93-1.267a4.2 4.2 0 0 1 4.1 3.372" transform="translate(-23.732 -51.961)" style="fill:#8247e5"/>
                <path data-name="Path 6789" d="M183.766 218.011a.262.262 0 0 0-.06-.04.268.268 0 0 0-.341.122 4.438 4.438 0 1 0 1.1-.143 4.4 4.4 0 0 0-.7.06m.7 8.282a3.885 3.885 0 0 1-1.39-7.513l-1.1 2.723a.276.276 0 0 0 .026.253 2.594 2.594 0 0 0-.047.462 2.637 2.637 0 0 0 2.634 2.633 2.608 2.608 0 0 0 1.679-.621.283.283 0 0 0 .092-.069l.023-.026a2.688 2.688 0 0 0 .366-.418l1.573-1.794a3.976 3.976 0 0 1 .033.483 3.891 3.891 0 0 1-3.887 3.887m1.841-2.934-.332.379a2.047 2.047 0 0 1-1.387.546 2.072 2.072 0 1 1 1.72-.925m1.865-2.126-.962 1.1c0-.038.011-.074.011-.112a2.622 2.622 0 0 0-4.022-2.229l.568-1.405a3.866 3.866 0 0 1 4.405 2.648" transform="translate(-40.566 -49.117)" style="fill:#8247e5"/>
                <path data-name="Path 6790" d="M209.751 197.355a4.409 4.409 0 1 0 4.408-4.409 4.414 4.414 0 0 0-4.408 4.409m4.408 3.841a3.838 3.838 0 0 1-1.7-7.279l-.871 2.676a.28.28 0 0 0 .031.234 2.149 2.149 0 0 0-.045.4 2.581 2.581 0 0 0 2.707 2.425 2.837 2.837 0 0 0 2-.81.281.281 0 0 0 .07-.06l.087-.11c.043-.052.085-.1.124-.157l1.387-1.762a3.817 3.817 0 0 1-3.79 4.45m1.946-3.023-.135.171a2.253 2.253 0 0 1-1.693.735 1.876 1.876 0 1 1 2.14-1.858 1.663 1.663 0 0 1-.311.951m1.666-2.117-.8 1.02a2.592 2.592 0 0 0-2.69-2.279 2.879 2.879 0 0 0-1.689.545l.549-1.687a3.82 3.82 0 0 1 4.634 2.4" transform="translate(-47.269 -43.482)" style="fill:#8247e5"/>
                <path data-name="Path 6791" d="M152.944 233.743a.283.283 0 0 0-.137-.06 4.556 4.556 0 0 0-4.315-3.114c-.139 0-.276.009-.411.021a4.553 4.553 0 1 0 4.865 3.589l.032-.036a.284.284 0 0 0-.032-.4m-.622.292-.852 1v-.04a2.733 2.733 0 0 0-2.731-2.731 2.7 2.7 0 0 0-1.244.314l.757-1.428c.08 0 .158-.012.237-.012a3.988 3.988 0 0 1 3.83 2.9m-3.58-1.2a2.163 2.163 0 1 1-2.164 2.164 2.166 2.166 0 0 1 2.164-2.164m3.735 2.29a3.984 3.984 0 1 1-4.918-3.869l-1.513 2.856a.281.281 0 0 0 .03.311 2.705 2.705 0 0 0-.064.575 2.721 2.721 0 0 0 5.1 1.321.06.06 0 0 0 .011-.008l1.33-1.557c.01.122.019.246.019.371" transform="translate(-32.439 -51.961)" style="fill:#8247e5"/>
                <path data-name="Path 6792" d="M233.329 168.152a4.534 4.534 0 0 0 4.707-4.328 4.029 4.029 0 0 0-.583-2.083.148.148 0 0 0-.013-.02 4.787 4.787 0 0 0-4.11-2.226 5.083 5.083 0 0 0-1.089.123.286.286 0 0 0-.157-.114.322.322 0 0 0-.071-.009.284.284 0 0 0-.274.214l-.013.052a4.368 4.368 0 0 0-3.1 4.063 4.535 4.535 0 0 0 4.707 4.328m3.556-6.244-1.076 1.858a2.584 2.584 0 0 0-4.116-1.623l.5-1.932a4.523 4.523 0 0 1 1.136-.147 4.231 4.231 0 0 1 3.556 1.844m-5.635 1.951.052-.2a1.885 1.885 0 1 1-.052.2m.3-3.425-.806 3.115c-.017.064-.038.128-.05.194v.01a.267.267 0 0 0 0 .035 2.634 2.634 0 0 0-.043.43 2.6 2.6 0 0 0 5.045.882l.006-.008 1.5-2.593a3.437 3.437 0 0 1 .27 1.325 4.158 4.158 0 0 1-8.279 0 3.756 3.756 0 0 1 2.36-3.391" transform="translate(-51.522 -35.944)" style="fill:#8247e5"/>
                <path data-name="Path 6793" d="M235.547 125.717a4.359 4.359 0 1 0 4.353-4.617 4.493 4.493 0 0 0-4.351 4.613m4.351-4.046a4.055 4.055 0 1 1-3.783 4.046 3.926 3.926 0 0 1 3.783-4.046" transform="translate(-53.083 -27.292)" style="fill:#8247e5"/>
                <path data-name="Path 6794" d="M240.336 129.076a2.844 2.844 0 1 0-2.844-2.844 2.848 2.848 0 0 0 2.844 2.844m0-5.122a2.277 2.277 0 1 1-2.277 2.277 2.28 2.28 0 0 1 2.277-2.277" transform="translate(-53.521 -27.806)" style="fill:#8247e5"/>
                <path data-name="Path 6795" d="M233.169 82.834a4.546 4.546 0 1 0 4.546 4.546 4.552 4.552 0 0 0-4.546-4.546m0 8.526a3.979 3.979 0 1 1 3.979-3.979 3.983 3.983 0 0 1-3.979 3.979" transform="translate(-51.522 -18.667)" style="fill:#8247e5"/>
                <path data-name="Path 6796" d="M233.871 84.961a2.817 2.817 0 1 0 2.636 2.81 2.731 2.731 0 0 0-2.636-2.81m0 5.055a2.251 2.251 0 1 1 2.069-2.244 2.165 2.165 0 0 1-2.069 2.244" transform="translate(-52.111 -19.147)" style="fill:#8247e5"/>
                <path data-name="Path 6797" d="M218.619 54.172a4.566 4.566 0 1 0-4.566 4.566 4.571 4.571 0 0 0 4.566-4.566m-8.564 0a4 4 0 1 1 4 4 4 4 0 0 1-4-4" transform="translate(-47.21 -11.179)" style="fill:#8247e5"/>
                <path data-name="Path 6798" d="M217.148 54.439a2.706 2.706 0 1 0-2.706 2.707 2.71 2.71 0 0 0 2.706-2.707m-2.706 2.14a2.14 2.14 0 1 1 2.14-2.14 2.142 2.142 0 0 1-2.14 2.14" transform="translate(-47.717 -11.658)" style="fill:#8247e5"/>
                <path data-name="Path 6799" d="M188.683 29.232a4.763 4.763 0 0 0-9.508 0 4.763 4.763 0 0 0 9.508 0m-8.941 0a4.2 4.2 0 0 1 8.373 0 4.2 4.2 0 0 1-8.373 0" transform="translate(-40.379 -5.58)" style="fill:#8247e5"/>
                <path data-name="Path 6800" d="M187.679 29.559a2.49 2.49 0 1 0-2.49 2.49 2.493 2.493 0 0 0 2.49-2.49m-4.414 0a1.923 1.923 0 1 1 1.923 1.923 1.926 1.926 0 0 1-1.923-1.923" transform="translate(-41.173 -6.1)" style="fill:#8247e5"/>
                <path data-name="Path 6801" d="M146.463 20.394a4.231 4.231 0 0 0 3.425-.343 4.984 4.984 0 0 0 2.3-2.8 4.631 4.631 0 0 0-2.668-5.959 4.135 4.135 0 0 0-1.314-.215 4.348 4.348 0 0 0-2.11.559 5.1 5.1 0 0 0-2.154 6.42 4.225 4.225 0 0 0 2.524 2.339m-2.13-5.778a4.425 4.425 0 0 1 2.035-2.485 3.668 3.668 0 0 1 2.969-.3 3.9 3.9 0 0 1 2.546 3.819 3.228 3.228 0 0 0-3.069-3.1 3.265 3.265 0 0 0-3.084 3.413 3.265 3.265 0 0 0 3.084 3.413 2.906 2.906 0 0 0 2.047-.868 4.254 4.254 0 0 1-1.248 1.049 3.618 3.618 0 0 1-5.156-1.729 4.421 4.421 0 0 1-.125-3.209m7 1.345a2.536 2.536 0 1 1-5.033 0 2.536 2.536 0 1 1 5.033 0" transform="translate(-32.344 -2.496)" style="fill:#8247e5"/>
                <path data-name="Path 6802" d="M113.658 15.927c0-2.7-1.9-4.895-4.236-4.895s-4.236 2.2-4.236 4.895 1.9 4.895 4.236 4.895 4.236-2.2 4.236-4.895m-7.9 0c0-2.386 1.645-4.328 3.669-4.328s3.669 1.942 3.669 4.328-1.646 4.328-3.669 4.328-3.669-1.942-3.669-4.328" transform="translate(-23.705 -2.486)" style="fill:#8247e5"/>
                <path data-name="Path 6803" d="M113.406 16.212a3.236 3.236 0 1 0-3.236 3.236 3.24 3.24 0 0 0 3.236-3.236m-5.905 0a2.669 2.669 0 1 1 2.669 2.669 2.673 2.673 0 0 1-2.669-2.669" transform="translate(-24.099 -2.924)" style="fill:#8247e5"/>
            </g>
        </g>
    </g>
</svg>
