<svg xmlns="http://www.w3.org/2000/svg" width="200" height="176" viewBox="0 0 200 176">
    <defs>
        <clipPath id="d09j1owhca">
            <rect data-name="Rectangle 3808" width="200" height="176" rx="16" style="fill:#007acb"/>
        </clipPath>
        <clipPath id="xjgxzkg7sb">
            <path data-name="Rectangle 3782" style="fill:#007acb" d="M0 0h200.064v196.305H0z"/>
        </clipPath>
    </defs>
    <g data-name="cvi bg img color1b" style="clip-path:url(#d09j1owhca)">
        <g data-name="safe door solid b">
            <g data-name="Group 9710" style="clip-path:url(#xjgxzkg7sb)" transform="translate(-9 -12)">
                <path data-name="Path 7005" d="M189.064 51.288a89.565 89.565 0 0 0-26.148-29.336C143.761 7.961 121.09 1.518 106.26.155A40.029 40.029 0 0 0 102.608 0C85.1 0 55.7 9.265 50.316 14.668a.284.284 0 0 0 .4.4C56.436 9.328 89.6-.812 106.208.72 138.475 3.686 199.5 27.654 199.5 97.139c0 42.4-20.484 66.153-37.669 78.62-19.023 13.8-42.67 19.976-57.666 19.976-24.275 0-40.523-8.222-43.048-9.585.387-.339.8-.717 1.23-1.143 1.942.961 19.621 9.414 40.5 9.414 13.826 0 37.211-5.749 57.609-21.949 16.01-12.715 35.091-36.106 35.091-75.333 0-17.507-4.006-33.224-11.905-46.71a89.415 89.415 0 0 0-27.809-29.017C135.065 7.483 111 2.428 99.9 2.428c-15.943 0-27.105.876-47.64 13.027a.283.283 0 1 0 .288.487C72.955 3.867 84.047 3 99.9 3c11.037 0 34.959 5.029 55.618 18.884 18 12.073 39.464 34.931 39.464 75.259 0 39-18.967 62.252-34.879 74.889-20.284 16.112-43.521 21.825-57.256 21.825-20.262 0-37.492-8.01-40.082-9.272.5-.52 1.03-1.1 1.573-1.744a22.814 22.814 0 0 0 12.182-2.182.284.284 0 0 0 .065-.475 5.925 5.925 0 0 0-3.725-.985 17.3 17.3 0 0 0-7.088 1.82 43.855 43.855 0 0 0 1.875-2.768c2.677-2.1 7.569-.871 8.51-.606l.533 2.621a.284.284 0 0 0 .561-.091v-.021l-.281-1.394h.022c.225-.015 4.757-.393 10.021-6.778a75.428 75.428 0 0 0 21.441 1.18c11.413-.943 27.968-4.921 42.03-18.514 27.865-26.929 38.112-73.028 3.773-109.034-17.739-18.6-37.519-23.239-52.83-23.239a76.937 76.937 0 0 0-22.7 3.415 26.752 26.752 0 0 0-1.854-1.459l-.155-.613a.284.284 0 0 0-.276-.214h-.01c-.563-.542-2.121-1.175-6.169-1.756a27.369 27.369 0 0 0-3.833-.31c-1.972 0-3.331.337-3.995 1.007a1.527 1.527 0 0 0-.3.419 31.422 31.422 0 0 0-2.86-2.617 25.293 25.293 0 0 0-16.2-5.655 38.134 38.134 0 0 0-7.062.744l-.427.077c-10.7.077-22.889 33.882-23.841 44.434v2.47A74.992 74.992 0 0 0 7.422 75.05L6.9 73.368a.28.28 0 0 0-.094-.136 2.479 2.479 0 0 0-1.364-.523 1.357 1.357 0 0 0-.442.078A1.983 1.983 0 0 0 3.872 74.4a.29.29 0 0 0 .005.143l2.58 8.609A68.451 68.451 0 0 0 4.71 99.784l-3.365-.232h-.017a.282.282 0 0 0-.128.03c-.046.024-1.133.585-1.2 1.531-.043.615.349 1.213 1.162 1.778a.281.281 0 0 0 .139.05l3.425.27a65.91 65.91 0 0 0 2.092 16.278.278.278 0 0 0 .077.123l-2.82 8.874-1.614 2.732a.284.284 0 0 0-.022.245c.01.026 1.05 2.661 4.6 1.39a.282.282 0 0 0 .185-.232l.373-3.17 1.029-3.011a49.5 49.5 0 0 0 3.51 8.914.284.284 0 0 0 .16.136l.1 6.275-.066-.026a.269.269 0 0 0-.107-.022.285.285 0 0 0-.284.284v4.989a.283.283 0 0 0 .187.266 4.9 4.9 0 0 0 3 .239c.9 4.058 9.554 41.324 24.014 42.66a8.987 8.987 0 0 0 2.061-.046 6.952 6.952 0 0 0 1.514-.225l14.417-1.109a.266.266 0 0 0 .077-.016 13.539 13.539 0 0 0 3.446-2.214c1.817 1 18.407 9.76 43.513 9.76 13.983 0 37.563-5.261 58-20.085a88.994 88.994 0 0 0 26.688-30.41c7.441-14.014 11.214-30.39 11.214-48.671 0-17.089-3.7-32.515-11-45.85M75.788 180.357a22.915 22.915 0 0 1-11.016 1.954c.077-.1.155-.2.238-.3 6.313-3.158 9.663-2.2 10.778-1.655m32.634-7.761A75.7 75.7 0 0 1 87.4 171.49a35.011 35.011 0 0 0 1.583-2.16 71.905 71.905 0 0 0 31.134.7 62.333 62.333 0 0 0 16.422-5.766 70.214 70.214 0 0 1-28.119 8.328m11.606-3.119a71.513 71.513 0 0 1-30.715-.643c.278-.424.556-.858.834-1.317.137-.227.276-.465.415-.7a65.683 65.683 0 0 0 28.512.029c13.06-2.812 30.893-10.866 45.744-32.706-12.754 24.02-30.99 32.538-44.79 35.341m44.376-33.39q1.66-2.985 3.162-6.2c.237-.387.471-.789.706-1.184a83.189 83.189 0 0 1-3.868 7.389m2.666-6.49c-15.238 24.877-34.335 33.712-48.089 36.68a65.4 65.4 0 0 1-28.129.021c5.763-10.241 12.276-30.861 12.276-71.737 0-27.647-7.213-45.316-13.265-55.273a62.234 62.234 0 0 0-6.532-8.923 79.669 79.669 0 0 1 33.7-1.7v-.005C133.965 31.6 156.8 42.279 169.4 76.444c.088.256 8.709 25.887 0 47.747q-1.121 2.815-2.33 5.407M82.911 29.9c-.369-.408-.73-.792-1.078-1.155 2.534-.869 17-5.28 36.446-.414-.387-.077-.77-.155-1.162-.219a75.126 75.126 0 0 0-12.8-1.071A78.741 78.741 0 0 0 82.911 29.9m70.924 16.119c23.326 24.462 25.918 53.616 16.364 78.153-.222.411-.448.8-.672 1.208.132-.325.27-.641.4-.969 8.784-22.058.092-47.883 0-48.146-5.6-15.194-13.668-27.086-23.98-35.344a61.225 61.225 0 0 0-9.392-6.192c-.009-.005-.014-.013-.022-.018a5.111 5.111 0 0 1-.164-.084q-1.76-.93-3.584-1.755l-.175-.082-.147-.065a77.258 77.258 0 0 0-32.2-7.2A58.952 58.952 0 0 0 81.394 28.3c-.8-.811-1.534-1.5-2.173-2.06 11.042-3.416 45.58-10.668 74.614 19.777M78.154 26.055v.009a.273.273 0 0 0-.023.224.283.283 0 0 0 .356.184l.1-.034A55.642 55.642 0 0 1 89.4 39.627c6 9.89 13.16 27.451 13.16 54.943 0 42.326-6.985 62.823-12.844 72.563C83.4 177.642 77.008 178.2 76.944 178.2a.277.277 0 0 0-.093.026l-.175-.861a.285.285 0 0 0-.191-.215 16.655 16.655 0 0 0-4.531-.684 8.519 8.519 0 0 0-3.665.725 78.422 78.422 0 0 0 7.911-19.907c.485 1.961 2.465 3.193 5.36 4.374a.276.276 0 0 0 .227-.008 6.738 6.738 0 0 0 2.3.4c2.978 0 8.607-2.092 9.255-5.945a.076.076 0 0 0 .014-.013c.1-.15 2.479-3.683 1.06-6.292-.93-1.7-3.241-2.567-6.882-2.567-.207 0-.416 0-.631.008-3.222.084-7.591 2.8-9.622 5.626 3.165-14.021 5.135-33.473 4.014-60.365a231.613 231.613 0 0 0-3.425-32.626c1.317 1.434 3.674 2.921 7.786 2.982 3.963.055 6.541-.915 7.713-2.893 1.691-2.851-.135-6.8-.651-7.8-1.261-2.566-4.459-4.329-7.693-5.047a5.848 5.848 0 0 0-1.282-.142 5.7 5.7 0 0 0-3.181.96c-1.851.046-3.552 1.957-4.415 3.97q-3.7-14.9-9.871-23.937c7.685 3.331 11.1-.37 11.247-.535a.284.284 0 0 0 .062-.258l-.5-1.973c.29.222.65.506 1.068.857m9.507 124.309c-5.642 0-9.063 5.121-9.063 7.373a3.622 3.622 0 0 0 .84 2.275c-2.469-1.394-3.168-2.848-2.608-5.013.812-3.136 6.375-7.11 10.09-7.2 3.783-.1 6.129.664 7 2.262s.064 3.669-.528 4.828c-.138-2.164-1.3-4.52-5.728-4.52m5.178 4.99c0 4.036-6.134 6.12-8.753 6.12-2.715 0-4.924-1.674-4.924-3.732 0-2.078 3.212-6.806 8.5-6.806 3.435 0 5.175 1.488 5.175 4.422M78.159 53.9c.886 4.223 6 6.743 10.211 6.436 3.087-.22 4.6-1.806 4.874-5.113a6.014 6.014 0 0 1-.366 4.439c-1.061 1.789-3.486 2.666-7.216 2.614-4.42-.065-6.687-1.837-7.809-3.311a.281.281 0 0 0-.172-.1q-.607-3.119-1.3-6.023a.328.328 0 0 0 .043-.077 6.892 6.892 0 0 1 3.217-4.056 5.755 5.755 0 0 0-1.479 5.19m1.976-4.893a5.088 5.088 0 0 1 4.762-1.345c3.884.863 7.985 3.457 7.809 7.112-.16 3.3-1.472 4.793-4.38 5-3.98.28-8.791-2.054-9.616-5.987a5.189 5.189 0 0 1 1.419-4.781m-3.142-21.85c-.628.586-4.178 3.379-11.371-.11a38.486 38.486 0 0 0-1.828-2.349 14.387 14.387 0 0 0 6.423 1.451c2.229 0 5.2-.477 6.173-1.379zm-14.132-4.33c.529-.506 2.184-1.246 7.32-.509 5.977.857 5.979 1.793 5.977 1.831-.042.566-2.716 1.432-5.937 1.432a13.149 13.149 0 0 1-7.64-2.279.892.892 0 0 1 .28-.473M12.31 59.984a1.336 1.336 0 0 1 1.814.026v25.664a2.672 2.672 0 0 0-.471-.045 2.838 2.838 0 0 0-1.343.352zM13.643 86.2c.946 0 1.9.671 2.762 1.937l-.766 2.1a.284.284 0 0 0 .533.194l4.1-11.232a2.472 2.472 0 0 0 2.038.641l-4.338 13.39a.285.285 0 0 0 .542.175l.03-.091a46.477 46.477 0 0 1 1.356 9.676l-1.623-.143c-.064-.8-.122-1.3-.134-1.4l-.563.067c.016.126 1.472 12.664-2.479 18.436l.469.321a10.7 10.7 0 0 0 .692-1.17l.387 1.29c-1.007 1.489-2.15 2.413-3 2.413-2.306 0-4.368-3.862-5.456-9.444 1.275 4.879 3.308 7.35 4.659 7.368h.015a1.473 1.473 0 0 0 1.029-.486c1.8-1.772 3.1-8.637 3.1-16.323 0-6.318-1.042-11.754-2.324-14.626l-.242-.507c-.493-.956-1.011-1.538-1.514-1.651a1.642 1.642 0 0 0-.337-.035 2.337 2.337 0 0 0-1.212.387 3.088 3.088 0 0 1 2.276-1.287m9.784 42.981c1.728-2.3 5.713-9.471 5.3-26.235-.427-17.427-2.081-19.983-3.827-22.689a19.329 19.329 0 0 1-1.077-1.818.282.282 0 0 0-.253-.155.306.306 0 0 0-.053.012.261.261 0 0 0-.055-.054l-.035-.02c-.012-.007-.027-.005-.04-.011l.644-2.016c.9.783 3.618 3.486 5.667 9.119l.815 2.538a49.75 49.75 0 0 1 1.648 14.2l-.022.7a75.822 75.822 0 0 1-.161 3.408c-.6 8.28-.484 15.026-8.558 25.443.22-.053.033.38.253.364 1.4-.8 5.2-6.715 6.607-10.223 1.649-4.108 1.92-9.77 2.205-14.741l.243-5.673a50.478 50.478 0 0 0-1.492-12.93c-.167-.8-.689-2.366-.936-3.063s-.337-.79-.569-1.475c-2.174-5.274-4.841-7.7-5.52-8.252l.689-2.17a.28.28 0 0 0-.039-.243 1.568 1.568 0 0 0-1.161-1.506 1.816 1.816 0 0 0-.55-.085 1.677 1.677 0 0 0-.628.12 1.292 1.292 0 0 0-.764.8 1.271 1.271 0 0 0-.052.31l-1.131 3.6a2.709 2.709 0 0 0-.385-.091 11.11 11.11 0 0 0-.769-.129 12.163 12.163 0 0 0-1.7-.112 7.374 7.374 0 0 0-3.028.51V63.509c0-3.748 2.047-11.692 5.312-19.186l1.59-3.4-.019.026a39.343 39.343 0 0 1 6.93-10.24c2.324-2.281 4.622-3.438 6.842-3.438h.106c11.336.188 19.325 20.271 24.409 61.376l.9 8.593c2.545 31.148-3.322 59.467-11.894 72.666v.01l-.314.47c-2.845 4.226-5.976 6.8-9.188 7.267a7.261 7.261 0 0 1-1.614.05l-2.861-.765c-5.043-2.37-9.218-9.565-12.073-15.957l-.534-1.209a128.688 128.688 0 0 1-5.948-17.661.157.157 0 0 0-.007-.017.292.292 0 0 0-.026-.054.213.213 0 0 0-.028-.041.22.22 0 0 0-.042-.039.477.477 0 0 0-.041-.028.331.331 0 0 0-.053-.019.259.259 0 0 0-.054-.011H15.607v-8.512a7.278 7.278 0 0 0 2.313.5 8.694 8.694 0 0 0 2.807-.305.124.124 0 0 0 .025-.012l.781 3.371c0 .015-.014.027-.017.042a.923.923 0 0 0 .245.847l.009.012c.009.009.013.019.023.027s.033.024.046.038a1.759 1.759 0 0 0 1.143.4l.576-.034a4.986 4.986 0 0 0 1.229-.343 1.477 1.477 0 0 0 .83-1.046.89.89 0 0 0-.222-.775l-2.593-6.188c.058-.06.129-.136.215-.236m1.016-55.392-1.583 4.958c-1.394.139-1.838-.487-1.947-.7l1.511-4.81a1.768 1.768 0 0 0 2.02.549m-1.765-1.38a.308.308 0 0 0 .008-.1.764.764 0 0 1 .02-.112.73.73 0 0 1 .437-.449 1.17 1.17 0 0 1 .792-.019.943.943 0 0 1 .742 1.084.844.844 0 0 1-.852.528 1.245 1.245 0 0 1-.38-.061 1.163 1.163 0 0 1-.64-.465.773.773 0 0 1-.129-.414m.722 6.686a.291.291 0 0 0 0-.159l.219-.686a.232.232 0 0 0 .064.021.226.226 0 0 0 .079 0 19.6 19.6 0 0 0 1.065 1.792c1.7 2.638 3.318 5.13 3.743 22.391.01.4.012.788.016 1.178a1.51 1.51 0 0 0-1.071-.5l-6.642-.59a42.394 42.394 0 0 0-.089-1.741l6.719-.336a.284.284 0 0 0-.014-.568h-.015l-6.732.338q-.064-.76-.151-1.527l6.539-1.149a.284.284 0 0 0-.049-.564.26.26 0 0 0-.049 0l-6.512 1.144a44.454 44.454 0 0 0-1.256-6.331zm-.74 57.91-.122-.525a1.127 1.127 0 0 1 .62-.458c.788-.279 1.866-.368 2.21-.057a.317.317 0 0 1 .1.321.911.911 0 0 1-.488.62 2.514 2.514 0 0 1-2.32.1m1.906-1.8a5.14 5.14 0 0 0-1.6.283 1.982 1.982 0 0 0-.586.33l-1.3-5.623a.284.284 0 0 0-.151-.191c-.112-.056-.321-.211-.32-.335 0-.037.033-.239.645-.527.846-.4 1.317-.359 1.425-.237.062.068.012.206-.046.3a.018.018 0 0 1 0 .014.252.252 0 0 0-.029.088.124.124 0 0 0-.006.029.27.27 0 0 0 .018.119v.008l2.423 5.781a2.8 2.8 0 0 0-.469-.042m-3.517-2.626a.268.268 0 0 0-.049 0 8.66 8.66 0 0 1-2.623.3 9.558 9.558 0 0 1-1.312-.133c-.356-.064-.7-.163-1.049-.25v-1.936a3.544 3.544 0 0 0 .639.445 3.737 3.737 0 0 0 1.309.423 3.954 3.954 0 0 0 2.662-.548c.01-.006.015-.016.024-.022zm2.109-4.03-4.1-11.6a34.815 34.815 0 0 0 1.8-11.009l6.249 1.016a1.4 1.4 0 0 0 .3.047l.041.007c.015 0 .029.005.046.005a1.507 1.507 0 0 0 1.089-.495c-.287 14.18-4.009 20.273-5.384 22.045zm5.384-23.143a1.409 1.409 0 0 1-1.029 1.039l-.277-.044a1.348 1.348 0 0 1-.817-1.324 1.254 1.254 0 0 1 1.084-1.372 1.41 1.41 0 0 1 1.041 1.7m-2.116-1.794a2.08 2.08 0 0 0-.58 1.465 2.14 2.14 0 0 0 .332 1.153l-7.3-1.178-.046.294a54.291 54.291 0 0 0-.108-2.418zm-7.588 2h.008l1.462.232a35.981 35.981 0 0 1-1.545 10.263l-.639-1.806a39.654 39.654 0 0 0 .712-8.676m3.617 22.648c-.028 0-.051-.008-.077-.008a3.3 3.3 0 0 0-1.359.377 2.693 2.693 0 0 0-.62.387h-.005l-3.37-11.182a17.312 17.312 0 0 0 .857-2.528zm-2.4 1.6a.283.283 0 0 0 .052.1 1.192 1.192 0 0 0 .443.478.216.216 0 0 0-.164.029 3.643 3.643 0 0 1-2.356.494 4.292 4.292 0 0 1-1.157-.325 5.129 5.129 0 0 1-.854-.524v-8.144h-.019a9.009 9.009 0 0 0 1.259-1.385zm-4.4-53.326c.3-.037.59-.081.884-.113a14.362 14.362 0 0 1 1.59-.1 12.006 12.006 0 0 1 1.608.106c.263.036.526.079.786.132.092.019.174.037.253.05l-.429 1.366-3.286 9.016a4.838 4.838 0 0 0-1.961-1.639v-8.642a3.7 3.7 0 0 0 .554-.18m-2.579 46.148a2.749 2.749 0 0 0 .979.187 2.591 2.591 0 0 0 1.394-.486v19.133a3.384 3.384 0 0 1-2.084-.043zm-.557 4.251a.264.264 0 0 0 .063.12l.037 2.4a19.119 19.119 0 0 1-2.448-6.847l.655-1.916a8 8 0 0 0 .5.654zM7.938 97.16a30.352 30.352 0 0 1 1.712-6.6 6.686 6.686 0 0 1 1.724-2.364 2.825 2.825 0 0 1 .572-.354v10.43h-.759v.055a.764.764 0 0 0-.273-.055c-1.162 0-1.766 2.556-1.766 5.078 0 2.229.474 4.48 1.383 4.976l-1.889 4.488a41.265 41.265 0 0 1-1.031-9.69 49.663 49.663 0 0 1 .327-5.965m-.417-1.137a44.55 44.55 0 0 0-.511 3.92l-.451-.032a49.594 49.594 0 0 1 .915-13.389l1.239 4.14a.279.279 0 0 0 .182.182l-.106.28a22.291 22.291 0 0 0-1.268 4.9m5.987 2.253h-1v-10.6a1.015 1.015 0 0 1 .31.015c.4.09.861.686 1.312 1.687v6.535l-.741 2.324zm.682.565v-.566h-.225l1.472-4.607c.155.713.294 1.48.42 2.289l-1.544 4.443h-1.924v.107a4.984 4.984 0 0 0-.629-1.662zm.5-4.712V90.87c.17.519.335 1.092.492 1.718zm-2.847 13.611a5.966 5.966 0 0 0 .615-1.879h3.964c-.164 5.569-1.023 10.561-2.192 12.919l.088-10.472h1.019v-.567zm1.906.567-.1 11.383c-.046.053-.091.1-.137.15a.934.934 0 0 1-.631.323h-.008a1.179 1.179 0 0 1-.566-.2v-11.656zm-4.392 6.951c-.17-.476-.333-.983-.486-1.533l2.237-5.318a.852.852 0 0 0 .225-.1h.411v1.2zm2.387-4.272v8.53a10.639 10.639 0 0 1-2.144-3.608l.087.035zm-.591-3.246H11v.108a.243.243 0 0 1-.088.019c-.339 0-.783-.846-1.025-2.282.125.31.3.524.542.524h.006c.789 0 .852-2.185.852-2.856s-.061-2.856-.852-2.856c-.207 0-.363.155-.482.387.25-1.227.651-1.941.961-1.941.49 0 1.2 1.758 1.2 4.512 0 2.33-.507 3.942-.96 4.385m-1.008-4.487a6.517 6.517 0 0 1 .283-2.177 8.5 8.5 0 0 1 0 4.355 6.517 6.517 0 0 1-.283-2.177m2.4 2.04a14.852 14.852 0 0 0 .125-1.937 14.352 14.352 0 0 0-.194-2.39h3.889c.053.955.077 1.942.077 2.955 0 .46 0 .919-.014 1.373zm2.364-4.9 1.115-3.212c.129 1.016.232 2.091.31 3.212zM11.745 67.46v18.732a.286.286 0 0 0 .039.136 5.107 5.107 0 0 0-.669.611l-.4-1.291.748-17.429q.137-.372.283-.759m-1.53 16.582-1.853-5.97a53.654 53.654 0 0 1 2.456-8.09zm1.527-20.384v2.2a98.152 98.152 0 0 0-3.727 11.103l-.27-.864a85.085 85.085 0 0 1 4-12.439m-7.3 10.79c.155-.63.4-1.007.736-1.129a1.507 1.507 0 0 1 1.206.31L7.8 78.173l2.878 9.274a12.389 12.389 0 0 0-1.518 2.73zM6.8 84.275l.362 1.207c-1.636 5.708-1.267 12.987-1.176 14.39l-.7-.049A66.839 66.839 0 0 1 6.8 84.275m-5.371 18.107c-.423-.305-.892-.751-.861-1.229.036-.521.627-.913.825-1.029l5.57.383q-.085 1.125-.121 2.3zm3.87.872 1.527.121c-.007.373-.012.748-.012 1.127a44.7 44.7 0 0 0 1.331 11.319.271.271 0 0 0-.061.084l-.88 2.777a66 66 0 0 1-1.9-15.428m1.38 29.119c-2.5.824-3.435-.567-3.654-1l1.285-2.173a1.545 1.545 0 0 0 .423.4 2.94 2.94 0 0 0 2.252.171zm.421-3.22a2.688 2.688 0 0 1-2.048-.032.958.958 0 0 1-.418-.511l3.778-11.865a17.9 17.9 0 0 0 1.616 3.84zm1.877-3.741.409-1.2a18.5 18.5 0 0 0 2.774 6.709.267.267 0 0 0 .067.061l.052 3.377a42.579 42.579 0 0 1-3.3-8.952m3.128-2.322.026 1.724-.479-2.238a3.87 3.87 0 0 0 .8.508zm.4 23.693v-4.362l.084.03a4.022 4.022 0 0 0 2.815.017h.387v4.1a3.513 3.513 0 0 1-3.284.215m29.527 42.585-2.866.22c-13.989-1.321-22.782-39.002-23.515-42.283a2.3 2.3 0 0 0 .609-.391.282.282 0 0 0 .086-.2v-2.341a126.256 126.256 0 0 0 5.923 16.8c5.435 12.2 11.214 17.941 17.174 17.069 3.317-.486 6.573-3.111 9.536-7.5a.276.276 0 0 0 .285-.431c3.168-4.848 5.989-11.729 8.169-20.2 4.487-17.429 5.661-39.136 3.222-59.55-.077-.652-.155-1.3-.236-1.943l-.378-2.965C54.906 46.191 46.85 26.9 35.465 26.709h-.117c-2.373 0-4.808 1.211-7.237 3.6-6.694 6.584-12.042 21.054-13.556 29.319a2.247 2.247 0 0 0-1.385-.542 1.784 1.784 0 0 0-.793.188c1.323-10.808 13.212-43.22 23.208-43.288.445.122 4.958 1.463 10.458 6.507a57.375 57.375 0 0 1 8.521 13.781c5.153 11.192 11.294 31.084 11.294 62.289 0 43-7.382 77.524-18.809 87.941a11.723 11.723 0 0 1-5.015 2.866m7.473-163.311q1.084 1.25 2.181 2.7c7.412 9.888 16.239 29.326 16.239 65.813 1.375 58.143-8.8 80.971-17.569 89.882a21.689 21.689 0 0 1-3.2 2.7c.091-.077.181-.155.27-.237 11.537-10.521 18.993-45.2 18.993-88.361 0-35.571-8.154-59.754-16.917-72.5m7.534 162.15-12.228.94a19.685 19.685 0 0 0 5.909-4.256c8.87-8.97 19.152-31.924 17.774-90.329 0-36.635-8.894-56.189-16.354-66.143a46.051 46.051 0 0 0-5.673-6.309c-3.15-3.618-6.265-5.768-9-6.453 4.8-.8 13.191-1.576 21.452 5.035a34.116 34.116 0 0 1 6.294 6.744.182.182 0 0 0 .018.025c9.011 12.514 14.218 34.316 15.5 65.057 2.336 56.107-8.77 79.7-16.08 89.033-.184.093-.368.186-.556.286a.284.284 0 0 0-.119.383.272.272 0 0 0 .068.083.494.494 0 0 1-.036.044c-3.673 4.415-6.617 5.718-6.965 5.86" style="fill:#007acb"/>
                <path data-name="Path 7006" d="M106.562 133.8a8.816 8.816 0 1 0 8.866-8.767h-.05a8.8 8.8 0 0 0-8.816 8.767m9.983 7.359a6.963 6.963 0 1 1 6.907-7.02v.057a6.942 6.942 0 0 1-6.907 6.963m5.893-11.578a7.514 7.514 0 1 0-4.493 12.007 8.195 8.195 0 1 1 4.493-12.007" transform="translate(-24.016 -28.179)" style="fill:#007acb"/>
                <path data-name="Path 7007" d="M105.3 235.119a4.88 4.88 0 1 0 5.2-4.54 5.29 5.29 0 0 0-.333-.011 4.725 4.725 0 0 0-4.865 4.551m4.865 3.983a4.154 4.154 0 0 1-4.3-3.983 4.1 4.1 0 0 1 3.707-3.941l-2.055 2.8a.281.281 0 0 0 .033.366 2.664 2.664 0 0 0-.088.649 2.77 2.77 0 0 0 4.725 1.923l2.27-1.727a4.159 4.159 0 0 1-4.295 3.914m.064-1.947a2.163 2.163 0 1 1 2.2-2.163 2.164 2.164 0 0 1-2.2 2.163m4.183-2.641-1.509 1.148a2.679 2.679 0 0 0 .095-.669 2.735 2.735 0 0 0-3.621-2.583l.93-1.267a4.2 4.2 0 0 1 4.106 3.372" transform="translate(-23.729 -51.962)" style="fill:#007acb"/>
                <path data-name="Path 7008" d="M183.775 218.011a.254.254 0 0 0-.06-.039.268.268 0 0 0-.341.122 4.438 4.438 0 1 0 1.1-.143 4.376 4.376 0 0 0-.7.06m.7 8.282a3.885 3.885 0 0 1-1.39-7.514l-1.1 2.723a.275.275 0 0 0 .026.253 2.6 2.6 0 0 0-.047.465 2.62 2.62 0 0 0 4.312 2.014.277.277 0 0 0 .092-.069l.023-.026a2.685 2.685 0 0 0 .366-.418l1.572-1.794a3.869 3.869 0 0 1-3.855 4.37m1.841-2.934-.332.379a2.048 2.048 0 0 1-1.387.546 2.072 2.072 0 1 1 1.72-.925m1.865-2.126-.963 1.09c0-.038.011-.077.011-.112a2.622 2.622 0 0 0-4.022-2.229l.568-1.405a3.866 3.866 0 0 1 4.405 2.648" transform="translate(-40.578 -49.119)" style="fill:#007acb"/>
                <path data-name="Path 7009" d="M209.75 197.355a4.408 4.408 0 1 0 4.408-4.409 4.408 4.408 0 0 0-4.408 4.409m4.408 3.841a3.838 3.838 0 0 1-1.7-7.282l-.871 2.676a.282.282 0 0 0 .031.232 2.189 2.189 0 0 0-.045.4 2.58 2.58 0 0 0 2.707 2.425 2.835 2.835 0 0 0 2-.81.3.3 0 0 0 .07-.06l.087-.11c.043-.052.085-.1.124-.155l1.387-1.762a3.818 3.818 0 0 1-3.79 4.449m1.946-3.021-.135.171a2.255 2.255 0 0 1-1.693.735 1.876 1.876 0 1 1 2.14-1.859 1.664 1.664 0 0 1-.31.951m1.665-2.117-.8 1.02a2.592 2.592 0 0 0-2.69-2.279 2.879 2.879 0 0 0-1.689.542l.549-1.687a3.82 3.82 0 0 1 4.634 2.4" transform="translate(-47.271 -43.484)" style="fill:#007acb"/>
                <path data-name="Path 7010" d="M152.942 233.743a.281.281 0 0 0-.137-.06 4.555 4.555 0 0 0-4.315-3.114c-.139 0-.276.009-.411.021a4.553 4.553 0 1 0 4.865 3.589l.032-.036a.284.284 0 0 0-.032-.4m-.62.292-.852 1v-.04a2.733 2.733 0 0 0-2.731-2.731 2.688 2.688 0 0 0-1.244.31l.757-1.428c.077 0 .155-.012.237-.012a3.988 3.988 0 0 1 3.83 2.9m-3.58-1.2a2.163 2.163 0 1 1-2.164 2.164 2.163 2.163 0 0 1 2.164-2.164m3.734 2.29a3.984 3.984 0 1 1-4.918-3.868l-1.513 2.856a.281.281 0 0 0 .03.31 2.72 2.72 0 0 0 5.041 1.892l.011-.009 1.33-1.557c.01.122.019.246.019.371" transform="translate(-32.439 -51.963)" style="fill:#007acb"/>
                <path data-name="Path 7011" d="M233.331 168.151a4.535 4.535 0 0 0 4.707-4.328 4.031 4.031 0 0 0-.583-2.083.181.181 0 0 0-.013-.02 4.785 4.785 0 0 0-4.11-2.226 5.055 5.055 0 0 0-1.089.123.282.282 0 0 0-.155-.114.366.366 0 0 0-.071-.009.283.283 0 0 0-.274.214l-.013.052a4.369 4.369 0 0 0-3.1 4.063 4.535 4.535 0 0 0 4.707 4.328m3.556-6.244-1.076 1.859a2.585 2.585 0 0 0-4.116-1.627l.5-1.932a4.538 4.538 0 0 1 1.136-.147 4.231 4.231 0 0 1 3.556 1.844m-5.635 1.951.052-.2a1.884 1.884 0 1 1-.052.2m.3-3.425-.806 3.115c-.017.064-.038.128-.05.194v.01a.266.266 0 0 0 0 .035 2.595 2.595 0 0 0 5 1.311l.006-.008 1.5-2.593a3.432 3.432 0 0 1 .27 1.325 4.158 4.158 0 0 1-8.278 0 3.755 3.755 0 0 1 2.36-3.391" transform="translate(-51.526 -35.945)" style="fill:#007acb"/>
                <path data-name="Path 7012" d="M235.546 125.717a4.359 4.359 0 1 0 4.354-4.617 4.493 4.493 0 0 0-4.351 4.613m4.351-4.046a4.055 4.055 0 1 1-3.774 4.316 4.058 4.058 0 0 1-.009-.27 3.926 3.926 0 0 1 3.783-4.046" transform="translate(-53.084 -27.293)" style="fill:#007acb"/>
                <path data-name="Path 7013" d="M240.335 129.076a2.844 2.844 0 1 0-2.844-2.844 2.844 2.844 0 0 0 2.844 2.844m0-5.122a2.277 2.277 0 1 1-2.277 2.277 2.277 2.277 0 0 1 2.277-2.277" transform="translate(-53.523 -27.808)" style="fill:#007acb"/>
                <path data-name="Path 7014" d="M233.168 82.834a4.546 4.546 0 1 0 4.546 4.546 4.547 4.547 0 0 0-4.546-4.546m0 8.526a3.979 3.979 0 1 1 3.979-3.979 3.979 3.979 0 0 1-3.979 3.979" transform="translate(-51.524 -18.668)" style="fill:#007acb"/>
                <path data-name="Path 7015" d="M233.764 84.959a2.817 2.817 0 1 0 2.628 2.993c0-.06.006-.122.006-.183a2.731 2.731 0 0 0-2.634-2.81m0 5.054a2.251 2.251 0 1 1 2.061-2.425c.005.06.008.119.008.179a2.164 2.164 0 0 1-2.069 2.246" transform="translate(-52.007 -19.146)" style="fill:#007acb"/>
                <path data-name="Path 7016" d="M218.618 54.172a4.566 4.566 0 1 0-4.57 4.566 4.566 4.566 0 0 0 4.57-4.566m-8.564 0a4 4 0 1 1 4 4 4 4 0 0 1-4-4" transform="translate(-47.212 -11.18)" style="fill:#007acb"/>
                <path data-name="Path 7017" d="M217.147 54.44a2.707 2.707 0 1 0-2.707 2.707 2.711 2.711 0 0 0 2.706-2.707m-2.706 2.14a2.14 2.14 0 1 1 2.14-2.14 2.14 2.14 0 0 1-2.14 2.14" transform="translate(-47.718 -11.659)" style="fill:#007acb"/>
                <path data-name="Path 7018" d="M188.682 29.23a4.762 4.762 0 0 0-9.508 0 4.762 4.762 0 0 0 9.508 0m-8.941 0a4.2 4.2 0 0 1 8.373 0 4.2 4.2 0 0 1-8.373 0" transform="translate(-40.38 -5.579)" style="fill:#007acb"/>
                <path data-name="Path 7019" d="M187.678 29.559a2.49 2.49 0 1 0-2.49 2.49 2.49 2.49 0 0 0 2.49-2.49m-4.415 0a1.923 1.923 0 1 1 1.923 1.923 1.924 1.924 0 0 1-1.923-1.923" transform="translate(-41.174 -6.101)" style="fill:#007acb"/>
                <path data-name="Path 7020" d="M146.463 20.389a4.234 4.234 0 0 0 3.425-.343 4.983 4.983 0 0 0 2.3-2.8 4.631 4.631 0 0 0-2.668-5.959 4.137 4.137 0 0 0-1.317-.215 4.35 4.35 0 0 0-2.11.559 5.1 5.1 0 0 0-2.154 6.42 4.225 4.225 0 0 0 2.524 2.339m-2.13-5.778a4.424 4.424 0 0 1 2.035-2.485 3.67 3.67 0 0 1 2.969-.3 3.9 3.9 0 0 1 2.546 3.819 3.228 3.228 0 0 0-3.069-3.1 3.265 3.265 0 0 0-3.084 3.413 3.265 3.265 0 0 0 3.084 3.413 2.908 2.908 0 0 0 2.054-.866 4.256 4.256 0 0 1-1.248 1.049 3.617 3.617 0 0 1-4.946-1.308 3.559 3.559 0 0 1-.21-.421 4.42 4.42 0 0 1-.125-3.209m7 1.345a2.535 2.535 0 1 1-5.035 0 2.535 2.535 0 1 1 5.035 0" transform="translate(-32.347 -2.495)" style="fill:#007acb"/>
                <path data-name="Path 7021" d="M113.657 15.927c0-2.7-1.9-4.895-4.236-4.895s-4.236 2.2-4.236 4.895 1.9 4.895 4.236 4.895 4.236-2.2 4.236-4.895m-7.9 0c0-2.386 1.645-4.328 3.669-4.328s3.669 1.942 3.669 4.328-1.646 4.328-3.669 4.328-3.669-1.942-3.669-4.328" transform="translate(-23.706 -2.486)" style="fill:#007acb"/>
                <path data-name="Path 7022" d="M113.4 16.212a3.236 3.236 0 1 0-3.237 3.236 3.24 3.24 0 0 0 3.236-3.236m-5.905 0a2.669 2.669 0 1 1 2.669 2.669 2.668 2.668 0 0 1-2.669-2.669" transform="translate(-24.099 -2.924)" style="fill:#007acb"/>
                <path data-name="Path 7023" d="M25.5 95.562c-3.026-1.524-4.7-1.444-5.575-1.108a1.815 1.815 0 0 0-1.065.922l-.545-.2a2.371 2.371 0 0 1 1.375-1.253c1.428-.565 3.471-.189 6.072 1.121z" transform="translate(-4.128 -21.11)" style="fill:#007acb"/>
                <path data-name="Path 7024" d="M41.66 179.325c-7.443 0-14.4-13.154-18.164-34.373l.572-.1c3.713 20.92 10.449 33.893 17.59 33.893h.065c5.208-.057 10.062-6.9 13.668-19.275 3.636-12.479 5.533-29.044 5.34-46.644S58.28 78.7 54.37 66.308c-3.859-12.239-8.836-18.971-14.021-18.971h-.066c-7.265.08-13.785 13.48-17.015 34.971l-.575-.086c3.275-21.793 10.012-35.384 17.583-35.466h.071c5.46 0 10.634 6.876 14.576 19.377 3.926 12.449 6.195 29.029 6.388 46.685S59.6 147.1 55.949 159.631c-3.683 12.64-8.733 19.634-14.22 19.693h-.069" transform="translate(-5.115 -10.537)" style="fill:#007acb"/>
            </g>
        </g>
    </g>
</svg>
