<svg stroke="white" fill="white" stroke-width="0" xmlns="http://www.w3.org/2000/svg" width="32" height="32" viewBox="0 0 32 32">
        <path d="M210.479 9.742a7.122 7.122 0 0 1 2.187 5.355 6.956 6.956 0 0 1-6.756 7.151 7.45 7.45 0 0 1-.651-.012h-4.267l-2.492-2.5V5.5h4.352a7.606 7.606 0 0 1 5.64 2.256zm-9.623-2h-.031v.5l2.127 2.12v-.509zm2.456 2.04-2.027-2.035H201l2.027 2.036zm.709 0-2.028-2.035h-.568l2.027 2.036zm-1.139-2.035h-.749l2.027 2.036h.748zm2.755 2.053-1.987-2c-.209-.031-.409-.04-.629-.051l2.027 2.036h.209a2.721 2.721 0 0 1 .38.015m.639.071-1.936-1.953a7.22 7.22 0 0 0-.533-.1l1.98 1.98c.169.015.34.044.489.064zm.579.14-1.887-1.9a4.525 4.525 0 0 0-.439-.14l1.927 1.929a3.958 3.958 0 0 1 .4.1zm.22.071c.133.06.267.12.389.18l-1.837-1.851a4.996 4.996 0 0 0-.409-.2zm-6.249 2.133.36.361-.08.08-.28-.281v5.253h2.127V10.5l-2.127-2.1v.5l2.017 2.016-.08.071-1.938-1.937v.5l1.675 1.695-.069.08-1.606-1.625v.512l1.348 1.363-.069.08-1.277-1.293v.512l1.019 1.033-.069.08-.948-.963v.521l.689.692-.08.08-.609-.621zm6.475-2.26a4.446 4.446 0 0 0-1.333-1.333zm2.975-.011-.808-.832a7.707 7.707 0 0 1 .888 3.569c0 .14 0 .281-.011.411l2.036 2.056V15.1a6.936 6.936 0 0 0-2.1-5.153zm-7.043 7.671a4.71 4.71 0 0 0 4.785-4.637v-.3a5.451 5.451 0 0 0-.369-2.025 3.909 3.909 0 0 0-2.387-.589h-2.025zm6.7-2.356 2.116 2.125a7.872 7.872 0 0 0 .34-2.1l-2.047-2.055a7.722 7.722 0 0 1-.409 2.025m2.076 2.225-2.116-2.125a6.559 6.559 0 0 1-.723 1.395l2.16 2.165a6.474 6.474 0 0 0 .679-1.433zM210.448 20a6.032 6.032 0 0 0 .819-1l-2.145-2.156a6.066 6.066 0 0 1-.848.972zm-3.124-1.433 2.187 2.2a7.343 7.343 0 0 0 .868-.692l-2.179-2.192a5.875 5.875 0 0 1-.879.683m-.959.533 2.187 2.2a9.241 9.241 0 0 0 .868-.471l-2.185-2.2a6.128 6.128 0 0 1-.868.471zm-.933.351 2.176 2.185a7.625 7.625 0 0 0 .848-.3l-2.189-2.2a5.982 5.982 0 0 1-.833.316zm-.908.22 2.167 2.176q.418-.074.808-.18l-2.171-2.179q-.39.106-.809.177zm-.133.02a5.749 5.749 0 0 1-.739.1c2.4 2.133 2.655 2.105 2.905 2.076zm.579 2.267h.289c.133 0 .267 0 .4-.011l-2.135-2.146c-.22.011-.439.02-.667.02h-.012zm-5.989-2.133 2.127 2.133h.133l-2.116-2.133zm.289 0 2.127 2.133h.18l-2.127-2.133zm.32 0 2.127 2.133h.229l-2.127-2.133zm.369 0 2.127 2.133h.281l-2.127-2.133zm.429 0 2.127 2.133h.349l-2.127-2.133zm.489 0L203 21.957h.419l-2.119-2.138zm.569 0 2.127 2.133h.509l-2.127-2.133zm.649 0 2.127 2.133h.609l-2.128-2.134z" transform="translate(-189.834 1.833)" />
</svg>
