<svg stroke="white" fill="white" stroke-width="0"   xmlns="http://www.w3.org/2000/svg" width="32" height="32" viewBox="0 0 32 32">
    
    <path  d="M177.224 22.425a3.739 3.739 0 0 1 1.027 2.853c0 1.893-.027 3.453-.027 4.08a16.119 16.119 0 0 1-7.48.027c0-.427-.013-1.333-.027-2.507-4.187.933-5.08-2.067-5.08-2.067a4.121 4.121 0 0 0-1.68-2.253c-1.373-.947.107-.933.107-.933a3.173 3.173 0 0 1 2.307 1.6.2.2 0 0 0 .067.093 3.183 3.183 0 0 0 4.332 1.182 3.29 3.29 0 0 1 .96-2.067c-3.36-.387-6.88-1.707-6.88-7.613a6.116 6.116 0 0 1 1.547-4.147 5.742 5.742 0 0 1 .147-4.08s1.28-.4 4.16 1.587a14 14 0 0 1 7.56 0c2.88-1.98 4.146-1.58 4.146-1.58a5.6 5.6 0 0 1 .16 4.08 6.116 6.116 0 0 1 1.547 4.147c0 5.907-3.533 7.213-6.893 7.6" transform="translate(-158.437 2.188)" />
</svg>
