<svg stroke="white" fill="white" stroke-width="0" xmlns="http://www.w3.org/2000/svg" width="32" height="32" viewBox="0 0 32 32">
    <defs>
        <clipPath id="f7cty0p83a">
            <path data-name="Rectangle 3836" transform="translate(.022 -.776)"  d="M0 0h24v18H0z"/>
        </clipPath>
    </defs>
    <g data-name="sc youtube click">
        <path data-name="Rectangle 3837" style="fill:none" d="M0 0h32v32H0z"/>
        <g data-name="Group 9838" transform="translate(3.978 7.776)" >
            <path data-name="Path 7132" d="M23.419 2.637A3.028 3.028 0 0 0 21.3.5C19.436 0 11.961 0 11.961 0S4.485 0 2.61.5A3 3 0 0 0 .489 2.637 32.139 32.139 0 0 0 0 8.427a31.29 31.29 0 0 0 .5 5.79 3.028 3.028 0 0 0 2.12 2.134c1.862.5 9.338.5 9.338.5s7.476 0 9.351-.5a3 3 0 0 0 2.12-2.134 32.139 32.139 0 0 0 .489-5.79 31.29 31.29 0 0 0-.5-5.79m-13.9 9.351V4.866l6.252 3.561z" transform="translate(-.043 -.011)" />
        </g>
    </g>
</svg>
