<svg data-name="arm icon" xmlns="http://www.w3.org/2000/svg" width="128" height="127.999" viewBox="0 0 128 127.999">
    <path data-name="Path 6659" d="M111.864 1221.415a64 64 0 1 1-5.38-90.349 64 64 0 0 1 5.38 90.349" transform="translate(0 -1114.931)" style="fill:#4c57ff"/>
    <path data-name="Path 6660" d="M38.706 1171.129c5.359 4.385 11.972 6.031 16.252 4.71a1.588 1.588 0 0 0 .609-2.646c-11.876-11.849-12.347-24.584-1.047-37.744a.567.567 0 0 0-.559-.909c-3.517.729-12.192 2.916-16.736 7.492-8.2 7.538-6.145 22.618 1.481 29.1" transform="translate(6.451 -1110.976)" style="fill:#fff"/>
    <path data-name="Path 6661" d="M89.989 1180.713c-6.738 18.384-28.878 22.437-37.511 16.41a2.581 2.581 0 0 0-2.984.148 10.391 10.391 0 0 1-5.6 2.392.949.949 0 0 0-.38 1.757c22.892 13.934 47.465-5.478 48.153-20.41a.862.862 0 0 0-1.678-.3" transform="translate(8.691 -1101.77)" style="fill:#fff"/>
    <path data-name="Path 6662" d="M62.183 1186.24c.875-5.091-.52-10.593-5.387-9.417-22.683 5.483-29.239-14.255-30.792-20.968a.785.785 0 0 0-1.471-.168c-2.88 5.981-10.385 25.178 5.777 39.525 16.908 15.008 31.123-4.833 31.873-8.972" transform="translate(4.09 -1106.793)" style="fill:#fff"/>
    <path data-name="Path 6663" d="M54.794 1166.229c7.853 6.949 19.759 1.385 17.716-9.871-1.305-10.088 10.407-10.482 6.372-13.847-7.508-6.582-27.879-11.522-28.8 8.317-.709 6.6.965 12.072 4.715 15.4" transform="translate(10.077 -1110.533)" style="fill:#fff"/>
    <path data-name="Path 6664" d="M71.861 1165.39c-.2-.879-1.108-.858-1.879-.385-2.041 1.251-4.5 1.379-6.59 1.856-3.836.875 10.789 8.525 8.468-1.47" transform="translate(12.665 -1104.888)" style="fill:#fff"/>
    <path data-name="Path 6665" d="M87.972 1154.9c.705 4.7-.469 12.562.689 15.657s-1.519 9.734-6.072 2.248-9.282-7.585-9.7-13.3c-.121-1.648 1.922-6.441 4.672-8.139a8.406 8.406 0 0 0 3.412-4.127c.643-1.666.4-4.423 1.711-4.5 1.4-.078 4.584 7.454 5.289 12.158" transform="translate(14.711 -1109.312)" style="fill:#fff"/>
</svg>
