<svg xmlns="http://www.w3.org/2000/svg" width="32" height="18" viewBox="0 0 32 18">
    <g data-name="beta tag">
        <rect data-name="Rectangle 3892" width="32" height="18" rx="4" style="fill:#2bdec1"/>
        <g data-name="Group 10014">
            <path data-name="Path 7179" d="M8.79 7.375h1.866a3.659 3.659 0 0 1 1.877.364 1.257 1.257 0 0 1 .578 1.149 1.358 1.358 0 0 1-.283.88 1.283 1.283 0 0 1-.818.442v.041a1.646 1.646 0 0 1 .974.473 1.391 1.391 0 0 1 .312.957 1.525 1.525 0 0 1-.591 1.274 2.618 2.618 0 0 1-1.645.461H8.79zm1.028 2.5h.989a1.747 1.747 0 0 0 .942-.2.741.741 0 0 0 .3-.667.66.66 0 0 0-.32-.616 2.068 2.068 0 0 0-1.017-.19h-.89zm0 .8v1.913h1.092a1.654 1.654 0 0 0 .974-.238.863.863 0 0 0 .33-.75.786.786 0 0 0-.335-.7 1.836 1.836 0 0 0-1.019-.227z" transform="translate(-2.339 -1.57)" style="fill:#fff"/>
            <path data-name="Path 7180" d="M20.268 13.416h-3.556v-6.04h3.557v.834H17.74v1.644h2.369v.826H17.74v1.9h2.528z" transform="translate(-4.446 -1.571)" style="fill:#fff"/>
            <path data-name="Path 7181" d="M25.325 13.416H24.3V8.223h-1.85v-.847h4.727v.847h-1.85z" transform="translate(-5.973 -1.571)" style="fill:#fff"/>
            <path data-name="Path 7182" d="m33.8 13.405-.628-1.677h-2.4l-.615 1.677h-1.088l2.352-6.065h1.119l2.352 6.065zm-.9-2.528-.589-1.644q-.064-.165-.178-.52c-.076-.237-.128-.41-.157-.521a8.955 8.955 0 0 1-.34 1.112l-.567 1.574z" transform="translate(-7.734 -1.56)" style="fill:#fff"/>
        </g>
    </g>
</svg>
