<svg data-name="checbox selected" xmlns="http://www.w3.org/2000/svg" width="24" height="24" viewBox="0 0 24 24">
    <path data-name="Path 6089" d="M19 5v14H5V5h14m0-2H5a2.006 2.006 0 0 0-2 2v14a2.006 2.006 0 0 0 2 2h14a2.006 2.006 0 0 0 2-2V5a2.006 2.006 0 0 0-2-2z" style="fill:#00dfc1"/>
    <g data-name="Group 8235">
        <path data-name="Path 6090" d="M10.482 15.834a1 1 0 0 1-.707-.293l-2.631-2.632a1 1 0 1 1 1.414-1.414l1.924 1.925 4.96-4.961a1 1 0 0 1 1.414 1.414l-5.667 5.668a1 1 0 0 1-.707.293z" style="fill:#00dfc1"/>
    </g>
</svg>
