<svg data-name="empty search dark" xmlns="http://www.w3.org/2000/svg" width="80" height="80" viewBox="0 0 80 80">
    <path data-name="Rectangle 2515" transform="translate(16 14.001)" style="fill:none" d="M0 0h48v47H0z"/>
    <g data-name="Group 7185">
        <g data-name="Group 6473">
            <path data-name="Path 3920" d="M292.517 320.911H282.27a3.835 3.835 0 0 0-3.824 3.824v15.3a3.835 3.835 0 0 0 3.824 3.824h15.3a3.835 3.835 0 0 0 3.824-3.824v-10.25a6.036 6.036 0 0 0-1.768-4.268l-2.838-2.838a6.037 6.037 0 0 0-4.271-1.768zm-7.7 5.1h3.824a1.275 1.275 0 0 1 1.275 1.275 1.275 1.275 0 0 1-1.275 1.275h-3.821a1.275 1.275 0 0 1-1.275-1.275 1.275 1.275 0 0 1 1.275-1.276zm10.2 12.747h-10.2a1.275 1.275 0 0 1-1.275-1.275 1.275 1.275 0 0 1 1.275-1.275h10.2a1.275 1.275 0 0 1 1.275 1.275 1.275 1.275 0 0 1-1.275 1.274zm0-5.1h-10.2a1.275 1.275 0 0 1-1.275-1.275 1.275 1.275 0 0 1 1.275-1.275h10.2a1.275 1.275 0 0 1 1.275 1.275 1.275 1.275 0 0 1-1.275 1.275zm-1.275-6.374v-.747a1.275 1.275 0 0 1 2.176-.9l.747.747a1.275 1.275 0 0 1-.9 2.176h-.747a1.275 1.275 0 0 1-1.275-1.275z" transform="translate(-260.737 -294.253)" style="fill:#264fa1"/>
        </g>
        <path data-name="Path 3921" d="m354.049 305.8-9.254-9.272a1.947 1.947 0 0 0-1.381-.573h-.957l-.626-.6a14.536 14.536 0 1 0-1.563 1.565l.6.626v.957a1.947 1.947 0 0 0 .573 1.381l9.272 9.254a1.883 1.883 0 0 0 2.661 0l.671-.671a1.883 1.883 0 0 0 .004-2.667zm-23.237-9.845A10.059 10.059 0 1 1 340.87 285.9a10.045 10.045 0 0 1-10.059 10.06z" transform="translate(-292.307 -252.917)" style="fill:#b2bfce"/>
        <path data-name="Path 3922" d="M363.4 308.429a10.067 10.067 0 1 1-10.059-10.059 10.04 10.04 0 0 1 10.059 10.059z" transform="translate(-314.834 -275.445)" style="opacity:.05;fill:#b2bfce"/>
        <g data-name="Group 6474">
            <path data-name="Path 3923" d="m355.682 309.563-4.13-4.128a8.7 8.7 0 0 0-2.362-1.684 10.076 10.076 0 0 0-4.7 13.954h4.493a1.856 1.856 0 0 1 0 3.711h-1.033a10.1 10.1 0 0 0 10.31.285v-5.922a8.785 8.785 0 0 0-2.578-6.216zm-5.617 4.432h-1.086a1.856 1.856 0 0 1-1.855-1.856v-1.089a1.856 1.856 0 0 1 3.168-1.312l1.085 1.088a1.856 1.856 0 0 1-1.312 3.168z" transform="translate(-314.834 -279.934)" style="fill:#264fa1"/>
        </g>
        <path data-name="Path 3924" d="m373.76 326.494 2.8-2.8a.946.946 0 0 0-1.338-1.338l-2.8 2.8-2.8-2.8a.946.946 0 0 0-1.338 1.338l2.8 2.8-2.8 2.8a.946.946 0 0 0 1.338 1.338l2.8-2.8 2.8 2.8a.946.946 0 0 0 1.338-1.338z" transform="translate(-333.702 -293.463)" style="fill:#b2bfce"/>
    </g>
    <path data-name="Path 5189" d="M605.95 287.931a40 40 0 1 0 40 40 40 40 0 0 0-40-40zm0 75.294a35.294 35.294 0 1 1 35.294-35.294 35.294 35.294 0 0 1-35.294 35.294z" transform="translate(-565.95 -287.931)" style="fill:#264fa1"/>
</svg>
