<svg xmlns="http://www.w3.org/2000/svg" width="181.264" height="34.602" viewBox="0 0 181.264 34.602">
    <defs>
        <clipPath id="jh6ze3ga1a">
            <path data-name="Rectangle 3858" style="fill:none" d="M0 0h142.143v10.601H0z"/>
        </clipPath>
    </defs>
    <path data-name="Path 6659" d="M29.256 1142.78a16.738 16.738 0 1 1-1.407-23.63 16.739 16.739 0 0 1 1.407 23.63" transform="translate(0 -1114.931)" style="fill:#4c57ff"/>
    <path data-name="Path 6660" d="M33.722 1144.1a5.013 5.013 0 0 0 4.25 1.232.415.415 0 0 0 .159-.692c-3.106-3.1-3.229-6.43-.274-9.871a.148.148 0 0 0-.146-.238 9.533 9.533 0 0 0-4.377 1.959c-2.145 1.971-1.607 5.915.387 7.61" transform="translate(-21.912 -1128.368)" style="fill:#fff"/>
    <path data-name="Path 6661" d="M55.327 1180.285c-1.762 4.808-7.552 5.868-9.81 4.292a.676.676 0 0 0-.78.039 2.717 2.717 0 0 1-1.465.626.248.248 0 0 0-.1.459c5.987 3.644 12.414-1.433 12.594-5.338a.226.226 0 0 0-.439-.078" transform="translate(-29.518 -1159.638)" style="fill:#fff"/>
    <path data-name="Path 6662" d="M31.229 1163.352c.229-1.331-.136-2.771-1.409-2.463-5.932 1.434-7.647-3.728-8.053-5.484a.205.205 0 0 0-.385-.044c-.753 1.564-2.716 6.585 1.511 10.337 4.422 3.925 8.14-1.264 8.336-2.347" transform="translate(-13.896 -1142.573)" style="fill:#fff"/>
    <path data-name="Path 6663" d="M51.194 1144.439a2.747 2.747 0 0 0 4.633-2.582c-.341-2.639 2.722-2.741 1.667-3.621-1.964-1.721-7.291-3.013-7.533 2.175a4.559 4.559 0 0 0 1.233 4.028" transform="translate(-34.228 -1129.872)" style="fill:#fff"/>
    <path data-name="Path 6664" d="M65.131 1164.867c-.053-.23-.29-.224-.491-.1a5.415 5.415 0 0 1-1.723.485c-1 .229 2.822 2.229 2.215-.385" transform="translate(-43.024 -1149.044)" style="fill:#fff"/>
    <path data-name="Path 6665" d="M76.828 1145.924c.185 1.23-.123 3.285.18 4.095s-.4 2.546-1.588.588-2.428-1.984-2.537-3.478A3.2 3.2 0 0 1 74.1 1145a2.2 2.2 0 0 0 .9-1.08c.168-.436.1-1.157.448-1.176.367-.02 1.2 1.95 1.383 3.18" transform="translate(-49.973 -1134.002)" style="fill:#fff"/>
    <g data-name="Group 9912">
        <path data-name="Path 6650" d="M195.329 1153.718v-17.092a.524.524 0 0 1 .524-.524h4.947c3.942 0 6.434 2.128 6.434 5.418a5.14 5.14 0 0 1-2.869 4.758.528.528 0 0 0-.18.8l5.142 6.3a.524.524 0 0 1-.406.855h-2.781a.524.524 0 0 1-.417-.206l-5.006-6.554a.524.524 0 0 0-.416-.206h-1.231a.524.524 0 0 0-.524.524v5.917a.524.524 0 0 1-.524.524h-2.168a.524.524 0 0 1-.524-.524m5.442-9.054a2.948 2.948 0 0 0 3.217-3.072c0-1.5-1.161-2.733-3.217-2.733h-1.725a.524.524 0 0 0-.524.524v4.756a.524.524 0 0 0 .524.524z" transform="translate(-137.919 -1134.9)" style="fill:#fff"/>
        <path data-name="Path 6651" d="M255.015 1142.6v11.12a.524.524 0 0 1-.524.524h-1.927a.524.524 0 0 1-.524-.524v-17.092a.524.524 0 0 1 .524-.524h3.172a.524.524 0 0 1 .466.284l4.437 8.6a.525.525 0 0 0 .934 0l4.326-8.589a.524.524 0 0 1 .468-.288h3.144a.524.524 0 0 1 .524.524v17.092a.524.524 0 0 1-.524.524h-2.192a.524.524 0 0 1-.524-.524v-11.11a.524.524 0 0 0-.992-.236l-3.652 7.229a.524.524 0 0 1-.468.288h-1.533a.524.524 0 0 1-.467-.287l-3.676-7.241a.524.524 0 0 0-.992.237" transform="translate(-178.594 -1134.9)" style="fill:#fff"/>
        <path data-name="Path 6652" d="M390.01 1136.625a.524.524 0 0 1 .524-.524h5.426a9.07 9.07 0 1 1 0 18.141h-5.426a.524.524 0 0 1-.524-.524zm5.878 14.907c3.652 0 5.9-2.878 5.9-6.434 0-3.458-2.249-6.289-5.9-6.289h-2.136a.525.525 0 0 0-.524.524v11.674a.524.524 0 0 0 .524.524z" transform="translate(-277.553 -1134.897)" style="fill:#fff"/>
        <path data-name="Path 6653" d="M455.2 1136.1h2.168a.524.524 0 0 1 .524.524v17.092a.524.524 0 0 1-.524.524H455.2a.524.524 0 0 1-.524-.524v-17.092a.524.524 0 0 1 .524-.524" transform="translate(-323.936 -1134.897)" style="fill:#fff"/>
        <path data-name="Path 6654" d="M481.8 1136.1h2.168a.524.524 0 0 1 .524.524v14.383a.524.524 0 0 0 .524.524h6.522a.524.524 0 0 1 .524.524v1.66a.524.524 0 0 1-.524.524H481.8a.524.524 0 0 1-.524-.524v-17.092a.524.524 0 0 1 .524-.524" transform="translate(-343.015 -1134.897)" style="fill:#fff"/>
        <path data-name="Path 6655" d="M529.36 1136.1h2.168a.524.524 0 0 1 .524.524v14.383a.524.524 0 0 0 .524.524h6.524a.524.524 0 0 1 .524.524v1.66a.524.524 0 0 1-.524.524h-9.74a.524.524 0 0 1-.524-.524v-17.092a.524.524 0 0 1 .524-.524" transform="translate(-377.127 -1134.897)" style="fill:#fff"/>
        <path data-name="Path 6656" d="M569.721 1144.363c0-5.394 3.6-9.288 9-9.288s9 3.894 9 9.288c0 5.466-3.6 9.433-9 9.433s-9-3.967-9-9.433m14.779 0c0-3.87-2.25-6.6-5.781-6.6-3.507 0-5.757 2.733-5.757 6.6 0 3.967 2.25 6.748 5.757 6.748 3.531 0 5.781-2.781 5.781-6.748" transform="translate(-406.452 -1134.162)" style="fill:#fff"/>
        <path data-name="Path 6657" d="m127.909 1153.3 6.885-16.77a.686.686 0 0 1 .634-.425h1.98a.685.685 0 0 1 .636.43l6.733 16.77a.685.685 0 0 1-.636.94h-1.882a.686.686 0 0 1-.639-.437l-1.485-3.828a.253.253 0 0 0-.235-.161h-7.1a.252.252 0 0 0-.235.161l-1.485 3.828a.685.685 0 0 1-.639.437h-1.894a.685.685 0 0 1-.634-.946m8.2-12.687-2.391 6.228a.252.252 0 0 0 .235.343h4.781a.252.252 0 0 0 .236-.343l-2.391-6.228a.252.252 0 0 0-.471 0" transform="translate(-89.523 -1134.897)" style="fill:#fff"/>
        <path data-name="Path 6658" d="m322.8 1153.3 6.885-16.77a.686.686 0 0 1 .634-.425h1.98a.685.685 0 0 1 .636.43l6.733 16.77a.685.685 0 0 1-.636.94h-1.882a.686.686 0 0 1-.639-.437l-1.485-3.828a.253.253 0 0 0-.235-.161h-7.1a.253.253 0 0 0-.235.161l-1.485 3.828a.685.685 0 0 1-.639.437h-1.894a.685.685 0 0 1-.634-.946m8.2-12.687-2.391 6.228a.252.252 0 0 0 .235.343h4.781a.252.252 0 0 0 .236-.343l-2.391-6.228a.252.252 0 0 0-.471 0" transform="translate(-229.314 -1134.897)" style="fill:#fff"/>
    </g>
    <g data-name="Group 9915">
        <path data-name="Rectangle 3856" transform="translate(38.264 24.489)" style="fill:#fff" d="M0 0h.88v7.567H0z"/>
        <g data-name="Group 9914">
            <g data-name="Group 9913" style="clip-path:url(#jh6ze3ga1a)" transform="translate(38.264 24.002)">
                <path data-name="Path 7148" d="M10.057 8.054v-3.69a1.531 1.531 0 0 0-.29-1.017 1.117 1.117 0 0 0-.9-.34 1.454 1.454 0 0 0-1.186.461A2.193 2.193 0 0 0 7.3 4.886v3.168h-.861v-3.69a1.531 1.531 0 0 0-.29-1.017 1.124 1.124 0 0 0-.905-.34 1.4 1.4 0 0 0-1.183.485 2.609 2.609 0 0 0-.376 1.585v2.977h-.858V2.381h.7l.14.777h.041a1.693 1.693 0 0 1 .686-.647 2.1 2.1 0 0 1 .991-.233 1.685 1.685 0 0 1 1.739.963h.041a1.821 1.821 0 0 1 .736-.7A2.3 2.3 0 0 1 9 2.278a1.921 1.921 0 0 1 1.441.494 2.212 2.212 0 0 1 .479 1.581v3.7z" style="fill:#fff"/>
                <path data-name="Path 7149" d="M15.326 8.157a2.464 2.464 0 0 1-1.013-.2 1.9 1.9 0 0 1-.768-.629h-.062a7.681 7.681 0 0 1 .062.942v2.33h-.859V2.381h.7l.118.776h.042a1.993 1.993 0 0 1 .771-.672 2.346 2.346 0 0 1 1.01-.207 2.094 2.094 0 0 1 1.741.771 3.393 3.393 0 0 1 .613 2.163 3.378 3.378 0 0 1-.624 2.172 2.1 2.1 0 0 1-1.73.773m-.127-5.15a1.526 1.526 0 0 0-1.258.481 2.481 2.481 0 0 0-.4 1.533v.191a2.847 2.847 0 0 0 .4 1.711 1.515 1.515 0 0 0 1.279.515 1.329 1.329 0 0 0 1.151-.6A2.822 2.822 0 0 0 16.79 5.2a2.715 2.715 0 0 0-.417-1.628 1.368 1.368 0 0 0-1.173-.565" style="fill:#fff"/>
                <path data-name="Path 7150" d="M21.578 8.157a2.609 2.609 0 0 1-1.985-.765 2.966 2.966 0 0 1-.727-2.128 3.29 3.29 0 0 1 .675-2.179 2.246 2.246 0 0 1 1.815-.808 2.144 2.144 0 0 1 1.687.7 2.691 2.691 0 0 1 .621 1.851v.544h-3.908a2.251 2.251 0 0 0 .5 1.517 1.749 1.749 0 0 0 1.348.517 4.56 4.56 0 0 0 1.812-.384v.768a4.566 4.566 0 0 1-.862.282 4.844 4.844 0 0 1-.981.085M21.345 3a1.4 1.4 0 0 0-1.089.445 2.049 2.049 0 0 0-.479 1.232h2.965a1.888 1.888 0 0 0-.362-1.245A1.274 1.274 0 0 0 21.345 3" style="fill:#fff"/>
                <path data-name="Path 7151" d="M27.716 2.277a3.4 3.4 0 0 1 .678.062l-.119.8a2.977 2.977 0 0 0-.621-.077 1.512 1.512 0 0 0-1.178.559 2.039 2.039 0 0 0-.489 1.392v3.04h-.859V2.381h.709l.1 1.05h.042a2.491 2.491 0 0 1 .76-.853 1.718 1.718 0 0 1 .979-.3" style="fill:#fff"/>
                <path data-name="Path 7152" d="M36.686 8.054v-3.69a1.531 1.531 0 0 0-.29-1.017 1.117 1.117 0 0 0-.9-.34 1.454 1.454 0 0 0-1.186.461 2.193 2.193 0 0 0-.383 1.418v3.168h-.859v-3.69a1.531 1.531 0 0 0-.29-1.017 1.124 1.124 0 0 0-.905-.34 1.4 1.4 0 0 0-1.183.485 2.609 2.609 0 0 0-.376 1.585v2.977h-.858V2.381h.7l.14.777h.041a1.693 1.693 0 0 1 .686-.647 2.1 2.1 0 0 1 .991-.233 1.685 1.685 0 0 1 1.739.963h.041a1.821 1.821 0 0 1 .736-.7 2.3 2.3 0 0 1 1.1-.258 1.921 1.921 0 0 1 1.441.494 2.212 2.212 0 0 1 .479 1.581v3.7z" style="fill:#fff"/>
                <path data-name="Path 7153" d="m42.8 8.053-.171-.807h-.041a2.391 2.391 0 0 1-.847.723 2.594 2.594 0 0 1-1.053.188 1.893 1.893 0 0 1-1.322-.435 1.586 1.586 0 0 1-.479-1.237q0-1.717 2.748-1.8l.963-.031V4.3a1.441 1.441 0 0 0-.287-.986A1.183 1.183 0 0 0 41.4 3a3.736 3.736 0 0 0-1.6.434l-.264-.657a4.1 4.1 0 0 1 .918-.357 4 4 0 0 1 1-.129 2.161 2.161 0 0 1 1.5.45 1.875 1.875 0 0 1 .49 1.444v3.868zm-1.941-.605a1.739 1.739 0 0 0 1.26-.44 1.625 1.625 0 0 0 .458-1.232v-.513l-.859.037a3.13 3.13 0 0 0-1.478.318.961.961 0 0 0-.452.878.882.882 0 0 0 .282.709 1.171 1.171 0 0 0 .789.243" style="fill:#fff"/>
                <path data-name="Path 7154" d="M49.092 8.054v-3.67a1.479 1.479 0 0 0-.316-1.035 1.285 1.285 0 0 0-.989-.342 1.63 1.63 0 0 0-1.3.482 2.428 2.428 0 0 0-.414 1.588v2.977h-.863V2.381h.7l.14.777h.041a1.745 1.745 0 0 1 .74-.65 2.41 2.41 0 0 1 1.061-.23 2.16 2.16 0 0 1 1.543.494 2.1 2.1 0 0 1 .517 1.581v3.7z" style="fill:#fff"/>
                <path data-name="Path 7155" d="M54.112 8.157a2.609 2.609 0 0 1-1.985-.765 2.97 2.97 0 0 1-.727-2.128 3.29 3.29 0 0 1 .675-2.179 2.245 2.245 0 0 1 1.815-.808 2.143 2.143 0 0 1 1.687.7 2.691 2.691 0 0 1 .623 1.852v.544h-3.91a2.257 2.257 0 0 0 .5 1.517 1.75 1.75 0 0 0 1.349.517 4.559 4.559 0 0 0 1.811-.384v.767a4.59 4.59 0 0 1-.862.282 4.844 4.844 0 0 1-.981.085M53.879 3a1.4 1.4 0 0 0-1.089.445 2.049 2.049 0 0 0-.479 1.232h2.965a1.894 1.894 0 0 0-.362-1.245A1.275 1.275 0 0 0 53.879 3" style="fill:#fff"/>
                <path data-name="Path 7156" d="M61.545 8.054v-3.67a1.479 1.479 0 0 0-.316-1.035 1.285 1.285 0 0 0-.989-.342 1.627 1.627 0 0 0-1.3.482 2.422 2.422 0 0 0-.414 1.588v2.977h-.86V2.381h.7l.14.777h.042a1.751 1.751 0 0 1 .74-.65 2.414 2.414 0 0 1 1.061-.23 2.16 2.16 0 0 1 1.543.494 2.1 2.1 0 0 1 .508 1.581v3.7z" style="fill:#fff"/>
                <path data-name="Path 7157" d="M66 7.448a2.86 2.86 0 0 0 .439-.034 2.622 2.622 0 0 0 .336-.07V8a1.518 1.518 0 0 1-.41.111 3.136 3.136 0 0 1-.489.044q-1.647 0-1.648-1.734V3.049h-.811v-.414l.811-.358.363-1.211h.5v1.315h1.646v.668H65.09v3.337a1.157 1.157 0 0 0 .243.788.85.85 0 0 0 .667.274" style="fill:#fff"/>
                <path data-name="Rectangle 3857" transform="translate(70.665)" style="fill:#fff" d="M0 0h.859v8.054H0z"/>
                <path data-name="Path 7158" d="M78.242 5.212a3.127 3.127 0 0 1-.7 2.166 2.459 2.459 0 0 1-1.931.779 2.557 2.557 0 0 1-1.35-.357 2.349 2.349 0 0 1-.911-1.025 3.567 3.567 0 0 1-.321-1.563 3.117 3.117 0 0 1 .694-2.16 2.447 2.447 0 0 1 1.925-.775 2.4 2.4 0 0 1 1.891.792 3.117 3.117 0 0 1 .7 2.143m-4.322 0a2.7 2.7 0 0 0 .435 1.656 1.724 1.724 0 0 0 2.559 0 2.675 2.675 0 0 0 .438-1.659 2.631 2.631 0 0 0-.438-1.643 1.534 1.534 0 0 0-1.291-.562 1.51 1.51 0 0 0-1.273.555 2.665 2.665 0 0 0-.43 1.65" style="fill:#fff"/>
                <path data-name="Path 7159" d="M83.408 6.506a1.422 1.422 0 0 1-.59 1.222 2.774 2.774 0 0 1-1.656.429A3.6 3.6 0 0 1 79.4 7.8V7a4.248 4.248 0 0 0 .877.326 3.683 3.683 0 0 0 .9.119 2.055 2.055 0 0 0 1.036-.214.74.74 0 0 0 .075-1.222 4.578 4.578 0 0 0-1.121-.557 6.022 6.022 0 0 1-1.125-.514 1.542 1.542 0 0 1-.5-.5 1.3 1.3 0 0 1-.163-.668 1.27 1.27 0 0 1 .564-1.1 2.624 2.624 0 0 1 1.547-.4 4.519 4.519 0 0 1 1.791.374l-.306.7A4.1 4.1 0 0 0 81.436 3a1.78 1.78 0 0 0-.922.192.591.591 0 0 0-.31.528.648.648 0 0 0 .116.388 1.143 1.143 0 0 0 .376.3 8.187 8.187 0 0 0 .993.419 3.731 3.731 0 0 1 1.365.74 1.308 1.308 0 0 1 .354.937" style="fill:#fff"/>
                <path data-name="Path 7160" d="M88.464 6.506a1.422 1.422 0 0 1-.59 1.222 2.774 2.774 0 0 1-1.656.429 3.6 3.6 0 0 1-1.76-.357V7a4.248 4.248 0 0 0 .877.326 3.683 3.683 0 0 0 .9.119 2.055 2.055 0 0 0 1.036-.214.74.74 0 0 0 .075-1.222 4.578 4.578 0 0 0-1.121-.557 6.022 6.022 0 0 1-1.125-.511 1.542 1.542 0 0 1-.5-.5 1.3 1.3 0 0 1-.163-.668 1.27 1.27 0 0 1 .564-1.1 2.624 2.624 0 0 1 1.547-.4 4.519 4.519 0 0 1 1.791.374l-.306.7A4.1 4.1 0 0 0 86.492 3a1.78 1.78 0 0 0-.922.192.591.591 0 0 0-.31.528.648.648 0 0 0 .116.388 1.143 1.143 0 0 0 .376.3 8.187 8.187 0 0 0 .993.419 3.731 3.731 0 0 1 1.365.74 1.308 1.308 0 0 1 .354.937" style="fill:#fff"/>
                <path data-name="Path 7161" d="M95.255 8.157a2.46 2.46 0 0 1-1.012-.2 1.9 1.9 0 0 1-.768-.629h-.063a7.69 7.69 0 0 1 .063.942v2.33h-.86V2.381h.7l.119.776h.042a1.99 1.99 0 0 1 .77-.672 2.349 2.349 0 0 1 1.01-.207A2.092 2.092 0 0 1 97 3.049a3.393 3.393 0 0 1 .614 2.163 3.378 3.378 0 0 1-.624 2.172 2.1 2.1 0 0 1-1.731.773m-.124-5.15a1.526 1.526 0 0 0-1.258.481 2.481 2.481 0 0 0-.4 1.533v.191a2.847 2.847 0 0 0 .4 1.711 1.515 1.515 0 0 0 1.279.515 1.33 1.33 0 0 0 1.151-.6A2.83 2.83 0 0 0 96.72 5.2a2.722 2.722 0 0 0-.42-1.626 1.37 1.37 0 0 0-1.172-.567" style="fill:#fff"/>
                <path data-name="Path 7162" d="M101.7 2.277a3.39 3.39 0 0 1 .678.062l-.119.8a2.977 2.977 0 0 0-.621-.077 1.512 1.512 0 0 0-1.178.559 2.044 2.044 0 0 0-.49 1.389v3.043h-.859V2.381h.709l.1 1.05h.041a2.491 2.491 0 0 1 .76-.853 1.718 1.718 0 0 1 .979-.3" style="fill:#fff"/>
                <path data-name="Path 7163" d="M108.334 5.212a3.127 3.127 0 0 1-.7 2.166 2.459 2.459 0 0 1-1.931.779 2.557 2.557 0 0 1-1.35-.357 2.349 2.349 0 0 1-.911-1.025 3.567 3.567 0 0 1-.321-1.563 3.117 3.117 0 0 1 .694-2.16 2.447 2.447 0 0 1 1.925-.775 2.4 2.4 0 0 1 1.891.792 3.117 3.117 0 0 1 .7 2.143m-4.322 0a2.7 2.7 0 0 0 .435 1.656 1.724 1.724 0 0 0 2.559 0 2.675 2.675 0 0 0 .438-1.659 2.631 2.631 0 0 0-.438-1.643 1.534 1.534 0 0 0-1.291-.562 1.51 1.51 0 0 0-1.273.555 2.665 2.665 0 0 0-.43 1.65" style="fill:#fff"/>
                <path data-name="Path 7164" d="M111.672 7.448a2.863 2.863 0 0 0 .44-.034 2.622 2.622 0 0 0 .336-.07V8a1.538 1.538 0 0 1-.411.111 3.126 3.126 0 0 1-.489.044q-1.647 0-1.647-1.734V3.049h-.812v-.414l.812-.358.363-1.211h.5v1.315h1.646v.668h-1.646v3.337a1.152 1.152 0 0 0 .243.788.85.85 0 0 0 .668.274" style="fill:#fff"/>
                <path data-name="Path 7165" d="M115.979 8.157a2.609 2.609 0 0 1-1.985-.765 2.97 2.97 0 0 1-.727-2.128 3.29 3.29 0 0 1 .675-2.179 2.245 2.245 0 0 1 1.815-.808 2.143 2.143 0 0 1 1.687.7 2.691 2.691 0 0 1 .621 1.851v.544h-3.908a2.257 2.257 0 0 0 .505 1.517 1.75 1.75 0 0 0 1.349.517 4.559 4.559 0 0 0 1.811-.384v.768a4.59 4.59 0 0 1-.862.282 4.844 4.844 0 0 1-.981.085M115.746 3a1.4 1.4 0 0 0-1.089.445 2.049 2.049 0 0 0-.479 1.232h2.965a1.894 1.894 0 0 0-.362-1.245A1.275 1.275 0 0 0 115.746 3" style="fill:#fff"/>
                <path data-name="Path 7166" d="M121.8 8.157a2.422 2.422 0 0 1-1.907-.758 3.121 3.121 0 0 1-.675-2.145 3.214 3.214 0 0 1 .686-2.2 2.469 2.469 0 0 1 1.953-.776 3.85 3.85 0 0 1 .818.088 2.75 2.75 0 0 1 .642.207l-.264.731a4 4 0 0 0-.621-.19 2.783 2.783 0 0 0-.6-.075q-1.728 0-1.728 2.2a2.624 2.624 0 0 0 .421 1.6 1.47 1.47 0 0 0 1.25.56 3.836 3.836 0 0 0 1.455-.299v.761a3.109 3.109 0 0 1-1.434.295" style="fill:#fff"/>
                <path data-name="Path 7167" d="M126.408 7.448a2.863 2.863 0 0 0 .44-.034 2.622 2.622 0 0 0 .336-.07V8a1.538 1.538 0 0 1-.411.111 3.126 3.126 0 0 1-.489.044q-1.647 0-1.647-1.734V3.049h-.812v-.414l.812-.358.363-1.211h.5v1.315h1.646v.668H125.5v3.337a1.152 1.152 0 0 0 .243.788.85.85 0 0 0 .668.274" style="fill:#fff"/>
                <path data-name="Path 7168" d="M128.246.844a.565.565 0 0 1 .144-.431.506.506 0 0 1 .362-.138.514.514 0 0 1 .358.139.567.567 0 0 1 .149.43.574.574 0 0 1-.149.433.5.5 0 0 1-.358.141.5.5 0 0 1-.362-.141.58.58 0 0 1-.144-.433m.931 7.21h-.859V2.381h.859z" style="fill:#fff"/>
                <path data-name="Path 7169" d="M135.9 5.212a3.127 3.127 0 0 1-.7 2.166 2.459 2.459 0 0 1-1.931.779 2.557 2.557 0 0 1-1.35-.357A2.349 2.349 0 0 1 131 6.775a3.567 3.567 0 0 1-.321-1.563 3.117 3.117 0 0 1 .694-2.16 2.447 2.447 0 0 1 1.925-.775 2.4 2.4 0 0 1 1.891.792 3.117 3.117 0 0 1 .7 2.143m-4.322 0a2.7 2.7 0 0 0 .435 1.656 1.724 1.724 0 0 0 2.559 0 2.675 2.675 0 0 0 .438-1.659 2.631 2.631 0 0 0-.438-1.643 1.534 1.534 0 0 0-1.291-.562 1.51 1.51 0 0 0-1.27.558 2.665 2.665 0 0 0-.43 1.65" style="fill:#fff"/>
                <path data-name="Path 7170" d="M141.284 8.054v-3.67a1.479 1.479 0 0 0-.316-1.035 1.285 1.285 0 0 0-.989-.342 1.627 1.627 0 0 0-1.3.482 2.423 2.423 0 0 0-.414 1.588v2.977h-.86V2.381h.7l.14.777h.042a1.751 1.751 0 0 1 .74-.65 2.413 2.413 0 0 1 1.061-.23 2.161 2.161 0 0 1 1.543.494 2.1 2.1 0 0 1 .517 1.581v3.7z" style="fill:#fff"/>
            </g>
        </g>
    </g>
</svg>
