<svg data-name="icon sort up" xmlns="http://www.w3.org/2000/svg" width="24" height="24" viewBox="0 0 24 24">
    <path style="fill:none" d="M0 0h24v24H0z"/>
    <path data-name="Path 7208" d="M2 5.3h6.7a.669.669 0 0 1 .6.7v1.3a.669.669 0 0 1-.6.7H2a.684.684 0 0 1-.7-.7V6a.684.684 0 0 1 .7-.7z" style="fill:#f8ba15"/>
    <path data-name="Path 7209" d="M2 10.7h9.3a.684.684 0 0 1 .7.7v1.3a.684.684 0 0 1-.7.7H2a.684.684 0 0 1-.7-.7v-1.3a.684.684 0 0 1 .7-.7z" style="fill:#f8ba15"/>
    <path data-name="Path 7210" d="M2 16h12a.684.684 0 0 1 .7.7V18a.684.684 0 0 1-.7.7H2a.684.684 0 0 1-.7-.7v-1.3A.684.684 0 0 1 2 16z" style="fill:#f8ba15"/>
    <path data-name="Path 7211" d="M21.3 8H20v10a.684.684 0 0 1-.7.7h-.7a.684.684 0 0 1-.7-.7V8h-1.3a.265.265 0 0 1-.3-.3c0-.1 0-.2.1-.2l2.4-2.7a.3.3 0 0 1 .4 0l2.4 2.7c.1.1.1.1.1.2a.446.446 0 0 1-.4.3z" style="fill:#f8ba15"/>
</svg>
