<?xml version="1.0" encoding="utf-8"?>
<!-- Generator: Adobe Illustrator 27.0.1, SVG Export Plug-In . SVG Version: 6.00 Build 0)  -->
<svg version="1.1" id="Layer_1" xmlns="http://www.w3.org/2000/svg" xmlns:xlink="http://www.w3.org/1999/xlink" x="0px" y="0px"
	 viewBox="0 0 64 64" style="enable-background:new 0 0 64 64;" xml:space="preserve">
<style type="text/css">
	.st0{fill:url(#SVGID_1_);}
	.st1{fill:#FFFFFF;}
	.st2{fill:url(#SVGID_00000039837150277569823720000008731891610127564174_);}
</style>
<g>
	<linearGradient id="SVGID_1_" gradientUnits="userSpaceOnUse" x1="32" y1="0.625" x2="32" y2="62.5668">
		<stop  offset="0" style="stop-color:#2D65F8"/>
		<stop  offset="1" style="stop-color:#124ADC"/>
	</linearGradient>
	<path class="st0" d="M0,34.4c0-1.6,0-3.2,0-4.8c0.1-0.5,0.1-1.1,0.2-1.6C1.8,14.9,11.6,3.9,24.5,0.9c1.7-0.4,3.4-0.6,5.1-0.9
		c1.6,0,3.2,0,4.8,0c0.5,0.1,1.1,0.2,1.6,0.2c12.4,1.5,23.2,10.5,26.7,22.5c0.6,2.2,0.9,4.6,1.4,6.9c0,1.6,0,3.2,0,4.8
		c-0.1,0.5-0.1,1.1-0.2,1.6c-1.6,13.1-11.4,24.1-24.2,27.2c-1.7,0.4-3.4,0.6-5,0.9c-1.7,0-3.3,0-5,0c-0.8-0.1-1.6-0.2-2.4-0.3
		C14.1,61.2,5.5,53.8,1.4,41.3C0.6,39.1,0.4,36.7,0,34.4z M32,13.4c-10.3,0-18.6,8.3-18.6,18.6c0,10.3,8.3,18.6,18.6,18.6
		c10.3,0,18.7-8.3,18.7-18.6C50.6,21.7,42.3,13.4,32,13.4z"/>
	<path class="st1" d="M32,13.4c10.3,0,18.6,8.3,18.6,18.6c0,10.3-8.3,18.6-18.7,18.6c-10.3,0-18.6-8.4-18.6-18.6
		C13.4,21.7,21.7,13.4,32,13.4z M32,26c-1.5,0-2.9,0-4.4,0c-1.3,0-1.7,0.4-1.7,1.6c0,2.9,0,5.9,0,8.8c0,1.2,0.4,1.6,1.6,1.6
		c3,0,5.9,0,8.9,0c1.2,0,1.6-0.4,1.6-1.6c0-3,0-6,0-8.9c0-1.1-0.4-1.6-1.6-1.6C35,26,33.5,26,32,26z"/>
	
		<linearGradient id="SVGID_00000172439403924980384480000005935398744568303787_" gradientUnits="userSpaceOnUse" x1="32.0001" y1="0.625" x2="32.0001" y2="62.5668">
		<stop  offset="0" style="stop-color:#2D65F8"/>
		<stop  offset="1" style="stop-color:#124ADC"/>
	</linearGradient>
	<path style="fill:url(#SVGID_00000172439403924980384480000005935398744568303787_);" d="M32,26c1.5,0,3,0,4.4,0
		c1.2,0,1.6,0.4,1.6,1.6c0,3,0,6,0,8.9c0,1.1-0.4,1.6-1.6,1.6c-3,0-5.9,0-8.9,0c-1.2,0-1.6-0.4-1.6-1.6c0-2.9,0-5.9,0-8.8
		c0-1.2,0.4-1.6,1.7-1.6C29.1,26,30.5,26,32,26z"/>
</g>
</svg>
